<?xml version="1.0" encoding="UTF-8"?>
<svg version="1.1" xmlns="http://www.w3.org/2000/svg" width="608" height="608">
<path d="M0 0 C17.42350887 -0.77581487 33.85106537 6.86971811 46.84765625 18.08203125 C55.0897023 25.86944486 60.85607442 34.15782869 66.04296875 44.15625 C66.52765625 45.07277344 67.01234375 45.98929688 67.51171875 46.93359375 C79.24527775 70.72266915 79.40417624 102.09814279 71.35546875 127.03125 C70.59375 129.2734375 70.59375 129.2734375 69.04296875 131.15625 C63.35483588 133.54773443 57.66804779 135.09007363 51.65625 136.42578125 C50.7686499 136.62745407 49.8810498 136.82912689 48.96655273 137.03691101 C46.09749241 137.68678803 43.2266017 138.32809755 40.35546875 138.96875 C38.37324758 139.41517175 36.3910701 139.86178758 34.40893555 140.30859375 C19.98192812 143.54931975 5.5290485 146.64201319 -8.97143555 149.53710938 C-12.97621351 150.36760385 -16.96628102 151.26108728 -20.95703125 152.15625 C-20.86124786 152.76631393 -20.76546448 153.37637787 -20.66677856 154.00492859 C-19.66058906 160.41381144 -18.6546798 166.82273824 -17.64892578 173.23168945 C-17.27464721 175.61646613 -16.90029964 178.00123197 -16.52587891 180.38598633 C-15.9845143 183.83411794 -15.44340639 187.28228975 -14.90234375 190.73046875 C-14.73767609 191.77893478 -14.57300842 192.82740082 -14.40335083 193.90763855 C-14.24333588 194.927715 -14.08332092 195.94779144 -13.91845703 196.9987793 C-13.76040588 198.001539 -13.60235474 199.00429871 -13.43951416 200.03744507 C-13.10055675 202.22849064 -12.77254074 204.42124329 -12.45257568 206.61514282 C-12.2850177 207.75381805 -12.11745972 208.89249329 -11.94482422 210.06567383 C-11.79705536 211.09195389 -11.6492865 212.11823395 -11.49703979 213.1756134 C-10.10052167 220.88384889 -7.669877 227.20685913 -2.12890625 232.81640625 C-0.95703125 234.15625 -0.95703125 234.15625 -0.95703125 236.15625 C-0.40015625 236.424375 0.15671875 236.6925 0.73046875 236.96875 C3.04296875 238.15625 3.04296875 238.15625 5.23046875 239.65625 C12.69747746 243.63865464 20.08342037 243.66555834 28.140625 241.625 C37.05405023 238.73972941 42.66895427 232.22624025 47.04296875 224.15625 C48.27689101 221.20347884 49.22578707 218.24812395 50.04296875 215.15625 C50.26984375 214.351875 50.49671875 213.5475 50.73046875 212.71875 C51.5654047 205.8722752 51.00003908 199.34613374 50.04296875 192.53125 C48.48692599 181.28685339 48.48692599 181.28685339 49.04296875 177.15625 C52.45730571 173.6281018 57.05990348 173.56480852 61.73828125 173.07421875 C64.04296875 173.15625 64.04296875 173.15625 67.04296875 175.15625 C67.65893555 176.9777832 67.65893555 176.9777832 67.9921875 179.20703125 C68.11859619 180.04000732 68.24500488 180.8729834 68.37524414 181.73120117 C68.55108032 183.08628784 68.55108032 183.08628784 68.73046875 184.46875 C68.85349365 185.40501221 68.97651855 186.34127441 69.10327148 187.3059082 C71.59869959 207.90825909 71.10605545 227.89970128 58.04296875 245.15625 C48.36867955 257.19056133 37.55904887 265.11248788 22.10546875 267.44921875 C10.21139149 268.28270522 -1.44840841 262.82223504 -10.40625 255.4765625 C-27.86439867 239.59579633 -31.31180357 219.48123279 -34.40820312 197.09912109 C-35.02703469 192.65333385 -35.67028944 188.21141679 -36.31640625 183.76953125 C-37.21877775 177.54520444 -38.11878572 171.320556 -39.00390625 165.09375 C-39.27992676 163.15822266 -39.27992676 163.15822266 -39.56152344 161.18359375 C-39.95703125 158.15625 -39.95703125 158.15625 -39.95703125 156.15625 C-41.25640625 156.383125 -42.55578125 156.61 -43.89453125 156.84375 C-47.24929334 156.81220051 -48.6279376 156.41886008 -51.27734375 154.3046875 C-63.53497913 140.16783276 -71.57308261 118.86003386 -71.95703125 100.15625 C-72.01503906 98.24972656 -72.01503906 98.24972656 -72.07421875 96.3046875 C-72.61415397 70.54712196 -66.17663054 46.40377639 -49.95703125 26.15625 C-49.42722656 25.39957031 -48.89742187 24.64289063 -48.3515625 23.86328125 C-47.89136719 23.29996094 -47.43117187 22.73664063 -46.95703125 22.15625 C-46.29703125 22.15625 -45.63703125 22.15625 -44.95703125 22.15625 C-44.95703125 21.49625 -44.95703125 20.83625 -44.95703125 20.15625 C-35.4477345 9.22941833 -19.74429255 2.48687173 -5.70703125 0.40625 C-3.80409788 0.27938778 -1.90110776 0.15178505 0 0 Z M-27.95703125 26.15625 C-29.26335658 28.94887614 -28.98097549 30.08977473 -27.92480469 33.02197266 C-27.3940332 34.1104248 -26.86326172 35.19887695 -26.31640625 36.3203125 C-26.03355774 36.91242523 -25.75070923 37.50453796 -25.45928955 38.11459351 C-24.55290746 40.00903476 -23.63134302 41.89549969 -22.70703125 43.78125 C-10.59245923 68.65072646 -10.59245923 68.65072646 -12.95703125 76.15625 C-15.07521896 79.41009256 -17.32035817 82.32961261 -19.79296875 85.32421875 C-24.35802252 91.29834147 -24.74267009 96.83998835 -23.95703125 104.15625 C-21.63521633 113.24562772 -16.96933289 119.4341877 -9.14453125 124.46875 C-1.71253557 128.62977752 5.67335685 130.34656438 14.04296875 128.15625 C22.45249749 124.95056639 28.48254471 119.00986936 32.65234375 111.10546875 C35.71624389 103.91907375 37.55927357 96.94503878 36.04296875 89.15625 C33.00855901 81.98400879 27.13437661 76.50055934 20.08642578 73.25537109 C16.8010296 71.58994572 14.554031 70.33768634 13.05615234 66.875 C12.40833219 64.01128645 12.0020661 61.19827511 11.66796875 58.28125 C11.5191626 57.23291992 11.37035645 56.18458984 11.21704102 55.10449219 C10.06294485 46.60089312 9.30152908 38.03650616 8.81298828 29.46923828 C8.75353027 28.5667334 8.69407227 27.66422852 8.6328125 26.734375 C8.59019287 25.94450195 8.54757324 25.15462891 8.50366211 24.34082031 C7.9284546 21.61323323 6.96934738 20.15642423 5.04296875 18.15625 C-5.47551813 18.15625 -19.09669418 20.31008367 -27.95703125 26.15625 Z " fill="#FCFCFC" transform="translate(299.95703125,170.84375)"/>
<path d="M0 0 C13.20447617 -0.31589656 26.24648769 -0.27545639 39.375 1.3125 C40.3642749 1.43020752 41.3535498 1.54791504 42.37280273 1.66918945 C54.6985362 3.29069618 67.47584959 5.22229806 76 15 C79.72101202 20.58151803 78.63787519 28.39201848 77.5 34.828125 C75.87738739 40.69165694 73.16187132 45.82602875 70 51 C70.886875 51.226875 71.77375 51.45375 72.6875 51.6875 C80.86475944 54.92754619 83.65561224 62.30579146 87 70 C89.02724516 76.25374417 89.28718489 83.79499602 86.8359375 89.8984375 C80.93101004 99.98223671 73.21314845 105.93832295 62 109 C52.05171793 111.51766717 40.36745128 111.06702717 30.6875 107.9375 C20.93959442 104.88458452 11.04970213 106.12407694 1 107 C0.01212044 104.40644308 -0.1205093 103.30630523 0.91210938 100.68164062 C1.38455078 99.84826172 1.85699219 99.01488281 2.34375 98.15625 C2.84777344 97.23972656 3.35179687 96.32320313 3.87109375 95.37890625 C4.95703125 93.45963542 6.04296875 91.54036458 7.12890625 89.62109375 C7.63292969 88.70457031 8.13695312 87.78804688 8.65625 86.84375 C9.12869141 86.01037109 9.60113281 85.17699219 10.08789062 84.31835938 C11.1786325 81.5459598 10.73387224 80.80899816 10 78 C9.90737653 76.34403665 9.8648132 74.68490552 9.8581543 73.02636719 C9.85111984 72.03723328 9.84408539 71.04809937 9.83683777 70.0289917 C9.83267349 68.96239319 9.82850922 67.89579468 9.82421875 66.796875 C9.80099243 64.5130119 9.77687402 62.22915774 9.75195312 59.9453125 C9.71708483 56.36485052 9.68763145 52.78471135 9.67407227 49.20410156 C10.17086587 24.60835289 10.17086587 24.60835289 0 3 C0 2.01 0 1.02 0 0 Z M35 15 C33.05176571 18.89646858 33.29997134 23.64422841 32.9375 27.9375 C32.84662109 28.93330078 32.75574219 29.92910156 32.66210938 30.95507812 C32.08326648 37.66182171 31.91689729 44.26868026 32 51 C37.61 51 43.22 51 49 51 C49.825 48.525 50.65 46.05 51.5 43.5 C51.89155273 42.3562793 51.89155273 42.3562793 52.29101562 41.18945312 C54.13820259 35.4602415 54.76089135 30.27183279 53.375 24.3125 C50.58883635 19.62667932 46.23234213 16.43889409 41 15 C37.79129767 14.83242243 37.79129767 14.83242243 35 15 Z M32 61 C31.88296553 65.16642697 31.81246899 69.3324259 31.75 73.5 C31.71648437 74.67304688 31.68296875 75.84609375 31.6484375 77.0546875 C31.56798435 84.21501748 32.04744251 88.95618028 36 95 C39.6539324 97.87094689 42.49756031 98.19439596 47 97.9375 C51.53128912 97.30380092 54.50498466 96.06879396 58 93 C61.75372754 87.82244477 62.18555076 83.30737261 62.3125 77 C62.34988281 75.783125 62.38726562 74.56625 62.42578125 73.3125 C62.26450435 69.98385956 62.26450435 69.98385956 60.34765625 67.69921875 C57.66421528 65.75696115 55.2851538 64.79753522 52.125 63.8125 C51.11695313 63.48894531 50.10890625 63.16539062 49.0703125 62.83203125 C43.26186846 61.25798725 37.98053207 60.89688738 32 61 Z " fill="#F9F9F9" transform="translate(131,193)"/>
<path d="M0 0 C1.12728516 -0.00773438 2.25457031 -0.01546875 3.41601562 -0.0234375 C4.49947266 -0.02085937 5.58292969 -0.01828125 6.69921875 -0.015625 C7.68108154 -0.01336914 8.66294434 -0.01111328 9.67456055 -0.00878906 C12.36284268 0.25493875 14.01087058 0.87754059 16.3125 2.25 C16.63441082 6.86405502 16.0278113 10.53244721 14.8125 15 C12.94059637 22.89455008 12.97542985 30.52051762 13.125 38.5625 C13.14009716 39.9967305 13.15377654 41.43097664 13.16601562 42.86523438 C13.19857 46.32715639 13.25006379 49.78847237 13.3125 53.25 C14.75567082 53.11016224 16.19827923 52.96451193 17.640625 52.81640625 C18.4440332 52.73592041 19.24744141 52.65543457 20.07519531 52.57250977 C24.00056821 52.00666324 26.22833941 50.65024239 28.65234375 47.51953125 C32.00870071 42.48986009 34.01187965 37.6247059 34.5546875 31.53125 C35.50170271 22.56925244 39.14043382 17.66410799 45.3125 11.25 C45.84617187 10.65574219 46.37984375 10.06148437 46.9296875 9.44921875 C48.3125 8.25 48.3125 8.25 51 8.125 C55.77474568 9.74661174 59.06794287 12.40901692 62.3125 16.25 C63.39212948 19.79735402 62.79906782 21.33574835 61.0859375 24.5546875 C56.64297063 31.68621894 56.64297063 31.68621894 52.3125 33.25 C49.5625 32.875 49.5625 32.875 47.3125 32.25 C44.1895634 37.07635657 41.25635079 41.98933738 38.4375 47 C37.82132813 48.08796875 37.20515625 49.1759375 36.5703125 50.296875 C35.13999393 53.05408161 35.13999393 53.05408161 35.4296875 55.453125 C36.46097215 57.55219994 37.56487092 58.69655193 39.3125 60.25 C44.70732204 65.39909516 50.14294085 71.82830333 53.44140625 78.55078125 C54.76787051 81.1382788 56.60302738 81.30757474 59.3125 82.25 C66.80549208 85.26133455 66.80549208 85.26133455 68.5625 88.6875 C68.21571454 92.24205095 66.77057477 93.72364537 64.3125 96.25 C60.88838543 98.53274305 59.10685433 98.54018131 55.1015625 97.97265625 C43.88993651 95.06768313 32.13575373 87.83988485 25.9375 77.875 C24.13672295 73.85788197 22.68631014 69.79511738 21.33984375 65.60546875 C20.4286226 62.9367602 20.4286226 62.9367602 17.3125 61.25 C15.6625 60.92 14.0125 60.59 12.3125 60.25 C12.6425 70.48 12.9725 80.71 13.3125 91.25 C15.9525 92.57 18.5925 93.89 21.3125 95.25 C22.3125 96.25 22.3125 96.25 22.4375 99.25 C22.3125 102.25 22.3125 102.25 21.3125 103.25 C18.77835558 103.38337602 16.28550325 103.43966202 13.75 103.4375 C12.58138428 103.4384668 12.58138428 103.4384668 11.38916016 103.43945312 C0.66136501 103.34763772 -10.01552929 102.27181334 -20.6875 101.25 C-20.01787094 97.56283589 -19.1164822 94.91181619 -17.1875 91.6875 C-14.18465342 86.65074862 -13.56245541 82.90366268 -13.54223633 77.03198242 C-13.53585648 75.77355026 -13.52947662 74.5151181 -13.52290344 73.21855164 C-13.5213744 71.8475244 -13.52026064 70.47649665 -13.51953125 69.10546875 C-13.51631576 67.69305894 -13.51295147 66.28064947 -13.50944519 64.86824036 C-13.50346212 61.90849028 -13.50160439 58.94876937 -13.50219727 55.98901367 C-13.50229872 52.20971886 -13.48866018 48.43061262 -13.47142506 44.65136242 C-13.46026561 41.73357802 -13.45827928 38.8158386 -13.45880699 35.89803505 C-13.45763229 34.50547957 -13.45323934 33.11292274 -13.44547462 31.72038841 C-13.23484988 21.76480662 -13.23484988 21.76480662 -15.6875 12.25 C-17.0178125 10.950625 -17.0178125 10.950625 -18.375 9.625 C-19.138125 8.84125 -19.90125 8.0575 -20.6875 7.25 C-20.5 4.4375 -20.5 4.4375 -19.6875 2.25 C-13.15165289 -0.12667168 -6.90095703 -0.04784026 0 0 Z " fill="#F9F9F9" transform="translate(53.6875,199.75)"/>
<path d="M0 0 C1.00289063 0.44085938 2.00578125 0.88171875 3.0390625 1.3359375 C7.68244007 3.4864103 11.53774917 5.29933933 14 10 C14.72335173 14.34011041 14.26499269 17.09691545 11.9375 20.75 C9.13430057 24.25597338 6.36991235 25.79450694 2 27 C-1.8444629 26.93483961 -4.05468968 26.78263741 -7.04296875 24.30859375 C-9.26095342 21.69216872 -10.36855712 19.31069066 -11.625 16.125 C-12.02976562 15.11695313 -12.43453125 14.10890625 -12.8515625 13.0703125 C-13.97464523 10.0677852 -15.00820888 7.04816535 -16 4 C-18.31 4 -20.62 4 -23 4 C-26.3471714 9.73944405 -27.66513153 15.88848097 -29.1875 22.3125 C-29.46013672 23.40240234 -29.73277344 24.49230469 -30.01367188 25.61523438 C-31.35225148 31.1943268 -32.21335469 36.24375313 -32.00952148 41.9777832 C-31.99419133 45.23367256 -32.72548047 48.27259021 -33.4375 51.4375 C-36.6139202 64.98624655 -36.6139202 64.98624655 -33 78 C-28.36156056 83.86840765 -22.48664319 89.47215962 -14.8125 90.375 C-12.08744878 90.01165984 -10.32613453 89.4314674 -8 88 C-8 87.34 -8 86.68 -8 86 C-6.34516392 84.50122497 -4.62409488 83.07511527 -2.875 81.6875 C0.31199292 79.15508843 3.43844107 76.62607473 6.4375 73.875 C7.283125 73.25625 8.12875 72.6375 9 72 C11.16015625 72.3828125 11.16015625 72.3828125 13 73 C11.63178388 84.72756673 3.74398628 92.92472316 -4.859375 100.4765625 C-11.08922252 104.91021311 -18.02652135 105.48535041 -25.375 104.3125 C-37.08437991 101.86697252 -46.72036232 97.0912756 -53.6875 87.1328125 C-63.79695689 70.70494506 -62.35404571 51.77014296 -58.203125 33.65234375 C-55.91495415 24.43776722 -52.65689893 15.70156119 -47 8 C-46.57203125 7.39671875 -46.1440625 6.7934375 -45.703125 6.171875 C-33.28749877 -9.8707881 -16.42679122 -7.51855303 0 0 Z " fill="#FAFAFA" transform="translate(451,194)"/>
<path d="M0 0 C0.99 0.33 1.98 0.66 3 1 C2.875 3.25 2.875 3.25 2 6 C0.03852126 7.38938077 -1.96166576 8.7260411 -4 10 C-5.06375135 13.19125404 -5.13335484 15.52470971 -5.125 18.875 C-5.12757813 19.90367187 -5.13015625 20.93234375 -5.1328125 21.9921875 C-5.00968936 24.78056442 -4.57888449 27.27803569 -4 30 C-2.79839233 29.9685791 -2.79839233 29.9685791 -1.57250977 29.93652344 C2.09736309 29.852786 5.76703416 29.80115632 9.4375 29.75 C10.69755859 29.71648437 11.95761719 29.68296875 13.25585938 29.6484375 C21.95829986 29.55755039 28.66358531 30.21990167 35.375 36.0703125 C35.91125 36.74835938 36.4475 37.42640625 37 38.125 C37.556875 38.80820312 38.11375 39.49140625 38.6875 40.1953125 C43.202131 46.40293012 41.66981675 56.67874718 41 64 C39.62455955 71.07971114 36.76408239 77.50120398 31 82 C30.49082031 82.44859375 29.98164062 82.8971875 29.45703125 83.359375 C24.43239506 87.77609224 20.7123051 88.16037758 14.25 88.125 C13.5590625 88.12886719 12.868125 88.13273437 12.15625 88.13671875 C7.67883406 88.12830255 3.43653417 87.65726432 -1 87 C-3.08196106 86.91367479 -5.16625689 86.86965707 -7.25 86.875 C-8.26578125 86.87242187 -9.2815625 86.86984375 -10.328125 86.8671875 C-13.10341423 86.88517186 -13.10341423 86.88517186 -16 88 C-17.83056393 88.11854556 -19.66564306 88.17517233 -21.5 88.1875 C-22.4590625 88.20167969 -23.418125 88.21585937 -24.40625 88.23046875 C-27 88 -27 88 -30 86 C-30.375 82.5625 -30.375 82.5625 -30 79 C-28.5625 77.25 -28.5625 77.25 -27 76 C-25.81239211 72.43717633 -25.87042424 69.58507645 -25.8671875 65.82421875 C-25.86573227 65.11039536 -25.86427704 64.39657196 -25.86277771 63.66111755 C-25.86052969 61.33652498 -25.8668071 59.01207799 -25.875 56.6875 C-25.87688324 55.90010437 -25.87876648 55.11270874 -25.88070679 54.30145264 C-25.90811286 44.5744033 -25.96787356 34.84669123 -26.3125 25.125 C-26.33489746 24.25447998 -26.35729492 23.38395996 -26.38037109 22.48706055 C-26.58660599 17.86823864 -27.0662105 14.77303979 -30 11 C-30.7425 10.34 -31.485 9.68 -32.25 9 C-34 7 -34 7 -34 4.5 C-29.25493587 -7.36266033 -10.25474912 -1.42774454 0 0 Z M-4 40 C-4.02468857 44.5206665 -4.04285449 49.0412939 -4.05493164 53.56201172 C-4.05996552 55.10043013 -4.06679308 56.63884375 -4.07543945 58.17724609 C-4.08754639 60.38640526 -4.09323769 62.59550126 -4.09765625 64.8046875 C-4.10281754 65.49432587 -4.10797882 66.18396423 -4.11329651 66.89450073 C-4.16318164 70.57059655 -4.16318164 70.57059655 -3 74 C3.1666179 74.79569263 6.3030093 74.31108357 11.3125 70.5 C16.80871635 65.65240546 19.61669845 60.99604312 20.9375 53.8125 C21.00735783 49.55117261 20.86137331 48.12149815 18 45 C12.41950152 41.50036536 7.34031039 39.85078539 0.75 39.9375 C-0.58804688 39.95103516 -0.58804688 39.95103516 -1.953125 39.96484375 C-2.62859375 39.97644531 -3.3040625 39.98804688 -4 40 Z " fill="#F8F8F8" transform="translate(506,331)"/>
<path d="M0 0 C3.40716841 2.51262226 4.84789639 4.57937371 5.6484375 8.7421875 C4.76384099 14.04976658 1.88726957 16.8931148 -1.9765625 20.4921875 C-5.34266109 22.73625322 -7.04397496 22.79014149 -10.984375 22.140625 C-14.53439779 20.98512738 -16.27355547 18.63573094 -17.9765625 15.4921875 C-19.49445683 11.87991633 -20.73821908 8.20721775 -21.9765625 4.4921875 C-22.63171933 2.82096288 -23.29490848 1.15278077 -23.9765625 -0.5078125 C-25.9565625 -0.5078125 -27.9365625 -0.5078125 -29.9765625 -0.5078125 C-32.39067952 4.77086903 -34.11850668 9.99236606 -35.5390625 15.6171875 C-35.75667236 16.47739502 -35.97428223 17.33760254 -36.19848633 18.22387695 C-37.9413481 25.52173968 -38.82023068 32.77087011 -39.34399414 40.24853516 C-39.69098022 45.13915681 -40.39921607 49.71108506 -41.53344727 54.48071289 C-42.77225014 60.10412714 -43.06809841 66.19165503 -40.2890625 71.3671875 C-36.19580865 76.89861162 -31.06185275 82.13836276 -24.9765625 85.4921875 C-21.84522442 85.88907238 -20.48292358 85.87394948 -17.92773438 83.94750977 C-16.94643555 82.88874634 -16.94643555 82.88874634 -15.9453125 81.80859375 C-15.21699219 81.04611328 -14.48867188 80.28363281 -13.73828125 79.49804688 C-12.99191406 78.69173828 -12.24554688 77.88542969 -11.4765625 77.0546875 C-9.99665804 75.46359851 -8.50738771 73.88115713 -7.0078125 72.30859375 C-6.02651367 71.24813843 -6.02651367 71.24813843 -5.02539062 70.16625977 C-2.66553423 68.23805013 -0.97044282 67.84041142 2.0234375 67.4921875 C3.56848812 71.93420802 2.17261289 74.6679092 0.3828125 78.8359375 C-3.54255839 86.50620246 -10.14118119 94.57449685 -17.9765625 98.4921875 C-30.94596033 101.04989743 -42.17170427 97.69542632 -52.9765625 90.4921875 C-52.9765625 89.8321875 -52.9765625 89.1721875 -52.9765625 88.4921875 C-53.6365625 88.4921875 -54.2965625 88.4921875 -54.9765625 88.4921875 C-61.96524674 80.40528145 -65.58340185 70.07333714 -65.9765625 59.4921875 C-66.01652344 58.53957031 -66.05648438 57.58695312 -66.09765625 56.60546875 C-66.50726682 37.01644567 -62.83607174 14.98032242 -50.5390625 -0.9453125 C-34.15911448 -17.32526052 -17.84570865 -10.49398814 0 0 Z " fill="#F9F9F9" transform="translate(457.9765625,320.5078125)"/>
<path d="M0 0 C4.42656512 0.97384433 6.43560334 1.44843054 9.75 4.6875 C13.84663817 7.60241562 15.68905916 7.3995111 20.53125 6.734375 C25.78451332 5.62219763 30.96148016 4.20481424 36.09838867 2.64111328 C42.35422524 0.83108517 47.41875933 0.35813889 53.5390625 3.1640625 C59.62667795 7.42767332 66.19532105 12.4203484 68 20 C68.8834344 26.66716896 67.23535073 31.92320876 64.77734375 38.10546875 C63.86047609 41.51953377 64.07806843 43.6041415 65 47 C66.11352953 48.93131442 66.11352953 48.93131442 67.5 50.625 C70.88028085 55.74455327 71.26707634 60.965744 71 67 C69.33031933 73.2613025 65.44064045 77.45738242 61 82 C60.47535156 82.54914063 59.95070312 83.09828125 59.41015625 83.6640625 C52.31042727 90.43397522 42.69705366 93.7712959 33 94 C31.87078125 94.05027344 30.7415625 94.10054688 29.578125 94.15234375 C16.01505834 94.51001956 16.01505834 94.51001956 10.13671875 89.37109375 C4.84638844 83.94932666 2.11405676 77.81051167 1.93359375 70.19921875 C1.95550781 69.47347656 1.97742188 68.74773437 2 68 C6.08640122 65.97941784 8.67196341 65.92412354 13.125 66.75 C14.67574219 67.02070313 14.67574219 67.02070313 16.2578125 67.296875 C19 68 19 68 22 70 C22.22137393 72.62697064 22.28162025 75.00893964 22.1875 77.625 C22.16719727 78.68460938 22.16719727 78.68460938 22.14648438 79.765625 C22.1111104 81.51074128 22.05730221 83.25546608 22 85 C29.59211119 85.42178396 36.2541426 84.19865543 42.875 80.3125 C47.47447733 75.30718643 49.26159599 70.80149585 49 64 C48.20335937 63.64808594 47.40671875 63.29617188 46.5859375 62.93359375 C34.22086289 57.1722512 34.22086289 57.1722512 31 51 C30.28437493 48.22999546 30.10129021 45.88677108 30 43 C30.68707031 42.62488281 31.37414062 42.24976563 32.08203125 41.86328125 C32.98308594 41.35152344 33.88414063 40.83976562 34.8125 40.3125 C35.70582031 39.81363281 36.59914062 39.31476563 37.51953125 38.80078125 C40.81639371 36.40731102 42.58967027 33.95183874 43.43359375 29.9375 C43.44093099 26.29822908 43.17701587 24.31999022 41.375 21.0625 C38.37556767 18.45772982 36.97019854 18.13341339 33 18 C30.04287877 19.05275606 27.40195363 20.56090738 24.6875 22.125 C23.93637939 22.53935303 23.18525879 22.95370605 22.41137695 23.38061523 C19.26366745 25.12298166 16.14658687 26.9153268 13.03125 28.71484375 C12.2578125 29.15957031 11.484375 29.60429687 10.6875 30.0625 C10.05199219 30.44535156 9.41648437 30.82820313 8.76171875 31.22265625 C7 32 7 32 3 32 C1.00043516 28.00087031 0.99981825 23.14630632 0.4375 18.75 C0.29892578 17.71230469 0.16035156 16.67460937 0.01757812 15.60546875 C-1.29376767 5.48937261 -1.29376767 5.48937261 -1 1 C-0.67 0.67 -0.34 0.34 0 0 Z " fill="#F9FAF9" transform="translate(69,330)"/>
<path d="M0 0 C1.09646851 0.04616455 1.09646851 0.04616455 2.21508789 0.09326172 C6.16143774 0.31759721 9.36537346 0.91205043 12.9375 2.625 C11.61166579 7.3390772 8.79202132 10.19977492 5.49609375 13.66015625 C3.79260233 15.80766549 3.36319183 16.94515146 2.9375 19.625 C3.23736481 21.9350387 3.23736481 21.9350387 3.8359375 24.484375 C5.59087487 34.18814634 5.40749863 44.04371505 5.5625 53.875 C5.60075739 55.89194252 5.63981338 57.90887005 5.6796875 59.92578125 C5.77483415 64.82539664 5.85916764 69.72508813 5.9375 74.625 C6.49687256 74.87169434 7.05624512 75.11838867 7.63256836 75.37255859 C8.36096924 75.71109863 9.08937012 76.04963867 9.83984375 76.3984375 C10.56421631 76.72763184 11.28858887 77.05682617 12.03491211 77.39599609 C13.9375 78.625 13.9375 78.625 15.5 82.25 C16.29177742 87.07347162 15.66519494 91.82614686 14.9375 96.625 C9.93991763 97.01451745 7.54915045 96.10172355 3.4375 93.3125 C-8.34547332 86.17918037 -23.48450231 84.6759605 -37.0625 86.625 C-40.79749252 88.02562219 -43.25208003 89.83339981 -46.0625 92.625 C-47.3259761 93.77894087 -48.5965296 94.92519404 -49.875 96.0625 C-50.39707031 96.57683594 -50.91914063 97.09117187 -51.45703125 97.62109375 C-53.0625 98.625 -53.0625 98.625 -55.26171875 98.28515625 C-56.15310547 97.95837891 -56.15310547 97.95837891 -57.0625 97.625 C-58.46704548 91.50519467 -59.29518915 85.90760706 -59.0625 79.625 C-57.2722939 78.95442113 -55.48028511 78.2886531 -53.6875 77.625 C-52.68976563 77.25375 -51.69203125 76.8825 -50.6640625 76.5 C-48.0625 75.625 -48.0625 75.625 -46.0625 75.625 C-45.77375 74.75875 -45.485 73.8925 -45.1875 73 C-44.48328403 70.88735208 -43.75745803 68.78164868 -43 66.6875 C-40.40979557 58.22616554 -40.72776772 49.29033787 -40.45703125 40.52148438 C-40.41964844 39.43802734 -40.38226563 38.35457031 -40.34375 37.23828125 C-40.31345703 36.25641846 -40.28316406 35.27455566 -40.25195312 34.26293945 C-40.08272637 31.90663135 -39.67903624 29.89376899 -39.0625 27.625 C-38.22747878 19.89941435 -38.22747878 19.89941435 -40.07421875 12.546875 C-41.82603486 10.46363422 -43.8849074 8.77891359 -45.9375 7 C-47.0625 5.625 -47.0625 5.625 -46.9375 3.5 C-46.504375 2.571875 -46.504375 2.571875 -46.0625 1.625 C-32.1974735 -2.9966755 -14.42315396 -0.69346416 0 0 Z M-30.0625 9.625 C-30.38546095 11.9958159 -30.38546095 11.9958159 -30.37109375 14.77734375 C-30.39429688 15.85097168 -30.4175 16.92459961 -30.44140625 18.03076172 C-30.46074219 19.19623535 -30.48007813 20.36170898 -30.5 21.5625 C-30.81092154 33.61232913 -31.88146076 45.43956349 -33.34375 57.3984375 C-34.11987528 63.79330134 -34.61801082 70.19951669 -35.0625 76.625 C-28.02979836 77.44907041 -21.14364578 77.74616029 -14.0625 77.625 C-13.18550127 71.60433408 -12.90971627 65.76750637 -12.9375 59.6875 C-12.93363281 58.84509766 -12.92976563 58.00269531 -12.92578125 57.13476562 C-12.93331472 52.24178005 -13.24482815 47.49545016 -13.84423828 42.64086914 C-14.12797375 40.0202833 -14.12418702 37.44576472 -14.0625 34.8125 C-13.98604505 31.50104488 -14.21659201 28.81491257 -15.0625 25.625 C-15.41642593 21.33673467 -15.531815 18.32897249 -13.0625 14.625 C-12.89536431 11.99968476 -12.89536431 11.99968476 -13.0625 9.625 C-16.35579826 7.65838587 -18.87546573 7.35444995 -22.6875 7.375 C-23.64914063 7.36984375 -24.61078125 7.3646875 -25.6015625 7.359375 C-28.23947348 7.38387912 -28.23947348 7.38387912 -30.0625 9.625 Z " fill="#F3F3F2" transform="translate(206.0625,331.375)"/>
<path d="M0 0 C0.85408447 0.33128906 1.70816895 0.66257813 2.58813477 1.00390625 C7.23116021 2.35943711 11.53141293 2.2090003 16.33984375 2.125 C17.33899307 2.11742676 18.3381424 2.10985352 19.36756897 2.10205078 C23.61773414 2.06960788 27.86750501 2.01380109 32.11743164 1.95898438 C65.51227701 1.56558621 65.51227701 1.56558621 74 8 C77.56476625 12.25520519 77.42616027 16.26593154 77.3125 21.5625 C77.31572266 22.31724609 77.31894531 23.07199219 77.32226562 23.84960938 C77.28500802 27.6939171 77.16687158 30.74537616 75 34 C69.52309221 33.61789015 67.66629982 31.95385274 64 28 C62.41229113 26.17045468 60.82902981 24.33704121 59.25 22.5 C55.07986858 17.89483251 50.98019242 14.00819077 45 12 C42.32515539 11.848125 42.32515539 11.848125 40 12 C40.15992432 12.79567383 40.31984863 13.59134766 40.48461914 14.41113281 C41.11039242 18.76872032 41.19250684 23.02562856 41.24609375 27.421875 C41.27904075 29.27083792 41.31225225 31.11979613 41.34570312 32.96875 C41.39296024 35.85608629 41.43741001 38.74340473 41.47680664 41.63085938 C41.51689257 44.43639413 41.56834745 47.24155348 41.62109375 50.046875 C41.6295079 50.89513855 41.63792206 51.7434021 41.64659119 52.61737061 C41.81328283 60.83826961 42.26501126 69.67680728 48 76 C50.90031127 77.88845829 53.88503303 79.49576381 57 81 C56.625 82.9375 56.625 82.9375 56 85 C52.6819502 86.6590249 48.9614071 86.26520571 45.30859375 86.3515625 C44.01792747 86.38629166 44.01792747 86.38629166 42.70118713 86.42172241 C40.8813364 86.46936859 39.06142115 86.51460185 37.24145508 86.55761719 C34.44523172 86.6248142 31.64943549 86.70252634 28.85351562 86.78125 C27.08855769 86.82615498 25.32358402 86.87044675 23.55859375 86.9140625 C22.71695175 86.93796051 21.87530975 86.96185852 21.00816345 86.98648071 C19.00591235 87.03010217 17.00262067 87.02056161 15 87 C14 86 14 86 13.625 83.6875 C14 81 14 81 16.1875 78.9375 C17.97746961 77.70440983 19.80395134 76.52162544 21.671875 75.41015625 C24.37199075 73.10664653 24.37199075 73.10664653 24.41015625 69.28125 C24.3236244 67.68563704 24.20489494 66.09160051 24.0625 64.5 C24.00328369 63.62085938 23.94406738 62.74171875 23.88305664 61.8359375 C23.04263975 50.5929022 21.69013829 39.37372466 20.37329102 28.17773438 C20.23892136 27.02815247 20.23892136 27.02815247 20.10183716 25.85534668 C19.93199353 24.40946999 19.75960432 22.96388916 19.584198 21.51867676 C19.16926686 17.99151742 18.90786129 14.55184032 19 11 C16.89569999 11.64539872 14.79156446 12.29133376 12.6875 12.9375 C11.51574219 13.29714844 10.34398437 13.65679687 9.13671875 14.02734375 C4.82277779 14.9713834 4.82277779 14.9713834 2 17.875 C1.67 18.57625 1.34 19.2775 1 20 C-0.25 21.75 -0.25 21.75 -2 23 C-5.1875 23.1875 -5.1875 23.1875 -8 23 C-8.70101432 19.18336645 -9.0259837 16.17033759 -8.4375 12.3125 C-7.96774089 8.75575244 -8.35103407 7.98875075 -10 5 C-9.75 2.8125 -9.75 2.8125 -9 1 C-5.96344656 -0.51827672 -3.36087176 -0.16804359 0 0 Z " fill="#F7F7F7" transform="translate(486,209)"/>
<path d="M0 0 C0.85408447 0.33128906 1.70816895 0.66257813 2.58813477 1.00390625 C7.23116021 2.35943711 11.53141293 2.2090003 16.33984375 2.125 C17.33899307 2.11742676 18.3381424 2.10985352 19.36756897 2.10205078 C23.61773414 2.06960788 27.86750501 2.01380109 32.11743164 1.95898438 C65.51227701 1.56558621 65.51227701 1.56558621 74 8 C77.56476625 12.25520519 77.42616027 16.26593154 77.3125 21.5625 C77.31572266 22.31724609 77.31894531 23.07199219 77.32226562 23.84960938 C77.28500802 27.6939171 77.16687158 30.74537616 75 34 C69.52309221 33.61789015 67.66629982 31.95385274 64 28 C62.41229113 26.17045468 60.82902981 24.33704121 59.25 22.5 C55.07986858 17.89483251 50.98019242 14.00819077 45 12 C42.32515539 11.848125 42.32515539 11.848125 40 12 C40.24447876 13.16909912 40.24447876 13.16909912 40.49389648 14.36181641 C41.13952281 19.00297586 41.12358418 23.53161634 41.09765625 28.2109375 C41.0962413 29.17907379 41.09482635 30.14721008 41.09336853 31.14468384 C41.08779365 34.22148799 41.07524577 37.29821803 41.0625 40.375 C41.05748175 42.46744686 41.05291941 44.55989487 41.04882812 46.65234375 C41.03783245 51.7682575 41.02058515 56.88411621 41 62 C40.67 62 40.34 62 40 62 C39.01569515 57.01023193 38.80466513 52.19283171 38.71875 47.12890625 C38.70034058 46.2883519 38.68193115 45.44779755 38.66296387 44.58177185 C38.60454153 41.9087484 38.55159709 39.23566336 38.5 36.5625 C38.43192898 33.04284662 38.35824409 29.52337448 38.28125 26.00390625 C38.26767456 25.20578018 38.25409912 24.40765411 38.2401123 23.58534241 C38.16140545 20.0029241 37.9814991 16.54164416 37.41992188 12.99975586 C37.28134766 12.00983643 37.14277344 11.01991699 37 10 C38 9 38 9 40.73046875 8.78515625 C50.40937963 9.42116593 57.9098431 17.09617842 64 24 C64.92391239 25.16093703 65.84182762 26.32670898 66.75 27.5 C69.30042616 30.33380684 70.36342305 30.4701676 74 31 C74.05401695 28.08308475 74.09368066 25.16717276 74.125 22.25 C74.15013672 21.0125 74.15013672 21.0125 74.17578125 19.75 C74.18222656 18.95078125 74.18867187 18.1515625 74.1953125 17.328125 C74.20578613 16.5949707 74.21625977 15.86181641 74.22705078 15.10644531 C73.95968415 12.62597297 73.35384491 11.09286268 72 9 C64.11460659 4.82537996 56.14301021 4.84219871 47.39453125 4.83203125 C46.39290451 4.82870285 45.39127777 4.82537445 44.35929871 4.82194519 C42.25231381 4.81690311 40.145321 4.81453602 38.03833008 4.81469727 C34.81253066 4.81250002 31.58706764 4.79428617 28.36132812 4.77539062 C26.309897 4.77245831 24.25846426 4.77047243 22.20703125 4.76953125 C21.24344193 4.76234573 20.2798526 4.75516022 19.2870636 4.74775696 C18.38900497 4.75083359 17.49094635 4.75391022 16.56567383 4.75708008 C15.77848465 4.75565506 14.99129547 4.75423004 14.18025208 4.75276184 C11.74808792 5.02856655 10.16761828 5.91325127 8 7 C7.34 6.67 6.68 6.34 6 6 C6 5.34 6 4.68 6 4 C1.59085217 2.89771304 -2.48382401 2.92345464 -7 3 C-6.835 3.495 -6.67 3.99 -6.5 4.5 C-5.38958665 10.05206673 -5.89846811 15.49234054 -7 21 C-2.45402957 19.87508646 -2.45402957 19.87508646 0.75 16.625 C5.86668913 10.65552935 13.58875056 9.87269119 21 9 C21.55331471 14.04942932 22.10457501 19.09907748 22.65405273 24.14892578 C22.84068283 25.8615503 23.02784354 27.57411709 23.21557617 29.28662109 C26.22418081 56.74114132 26.22418081 56.74114132 26 68 C25.01 67.505 25.01 67.505 24 67 C23.62890072 64.57765327 23.38709969 62.24750282 23.21875 59.80859375 C23.15973511 59.0710939 23.10072021 58.33359406 23.03991699 57.57374573 C22.85099168 55.19559682 22.67481196 52.81672454 22.5 50.4375 C22.26549656 47.35245548 22.02514491 44.26790935 21.78125 41.18359375 C21.72171143 40.4206601 21.66217285 39.65772644 21.60083008 38.87167358 C21.07096702 32.33020245 20.27233044 25.84183257 19.38476562 19.34008789 C19.05927263 16.5145361 18.92167116 13.83840775 19 11 C16.89569999 11.64539872 14.79156446 12.29133376 12.6875 12.9375 C11.51574219 13.29714844 10.34398437 13.65679687 9.13671875 14.02734375 C4.82277779 14.9713834 4.82277779 14.9713834 2 17.875 C1.67 18.57625 1.34 19.2775 1 20 C-0.25 21.75 -0.25 21.75 -2 23 C-5.1875 23.1875 -5.1875 23.1875 -8 23 C-8.70101432 19.18336645 -9.0259837 16.17033759 -8.4375 12.3125 C-7.96774089 8.75575244 -8.35103407 7.98875075 -10 5 C-9.75 2.8125 -9.75 2.8125 -9 1 C-5.96344656 -0.51827672 -3.36087176 -0.16804359 0 0 Z " fill="#E0DFE1" transform="translate(486,209)"/>
<path d="M0 0 C6.51495853 21.62528251 6.28565675 43.53849197 -3.41796875 63.98828125 C-10.73035479 77.15876927 -21.82060177 86.87774214 -36.03125 91.6875 C-41.0354983 93.11728523 -45.82195541 93.21575186 -51 93 C-51 92.34 -51 91.68 -51 91 C-50.11699219 90.90203125 -49.23398437 90.8040625 -48.32421875 90.703125 C-32.81181571 88.7703229 -22.25299542 84.42625823 -11.8125 72.5 C-3.22672419 61.26708845 1.38178023 47.32003252 1.25 33.3125 C1.24613281 32.31532959 1.24226563 31.31815918 1.23828125 30.29077148 C1.12630494 20.45629692 0.19663211 10.75468858 -1 1 C-2.79323253 1.28187936 -4.58457126 1.5758281 -6.375 1.875 C-7.37273437 2.03742188 -8.37046875 2.19984375 -9.3984375 2.3671875 C-12.1425115 2.7958802 -12.1425115 2.7958802 -14 5 C-14.01691402 8.21293217 -14.01691402 8.21293217 -13.625 12 C-12.25781905 30.14886035 -11.77496768 44.76040169 -22.71875 60.359375 C-28.12912886 66.62207382 -35.89452423 70.44909546 -44.11328125 71.3359375 C-54.85331829 71.46707348 -61.24160225 69.0479443 -69.17578125 61.87890625 C-73.18533132 57.74915554 -75.66752591 53.97246214 -77.6875 48.5625 C-78.10386719 47.47066406 -78.52023437 46.37882812 -78.94921875 45.25390625 C-80.83892602 39.40213615 -81.10485213 34.08142331 -81 28 C-80.34 28.33 -79.68 28.66 -79 29 C-78.5078125 31.5546875 -78.5078125 31.5546875 -78.125 34.875 C-76.81488359 44.06597051 -74.82507198 51.92461773 -68.171875 58.66015625 C-67 60 -67 60 -67 62 C-66.443125 62.268125 -65.88625 62.53625 -65.3125 62.8125 C-63 64 -63 64 -60.8125 65.5 C-53.34549129 69.48240464 -45.95954838 69.50930834 -37.90234375 67.46875 C-28.98891852 64.58347941 -23.37401448 58.06999025 -19 50 C-17.76607774 47.04722884 -16.81718168 44.09187395 -16 41 C-15.773125 40.195625 -15.54625 39.39125 -15.3125 38.5625 C-14.47756405 31.7160252 -15.04292967 25.18988374 -16 18.375 C-17.55604276 7.13060339 -17.55604276 7.13060339 -17 3 C-12.11511317 -1.4538674 -6.15429813 -1.31877817 0 0 Z " fill="#E3E4E6" transform="translate(366,345)"/>
<path d="M0 0 C2.78900863 2.78900863 2.62881359 5.67263776 3 9.4296875 C3.08121094 10.17525909 3.16242188 10.92083069 3.24609375 11.68899536 C3.50566721 14.08352933 3.75347554 16.47909038 4 18.875 C4.32859274 21.99791459 4.66220819 25.12025481 5 28.2421875 C5.0817749 28.99892761 5.1635498 29.75566772 5.24780273 30.53533936 C5.93408294 36.72957494 6.80415922 42.88136511 8 49 C8.14179688 49.74620605 8.28359375 50.49241211 8.4296875 51.26123047 C8.71199219 52.12192139 8.71199219 52.12192139 9 53 C11.18137797 54.02450239 11.18137797 54.02450239 14 55 C21.07459339 58.60403814 26.3951205 63.58303041 30.4375 70.4375 C32.73169445 80.88883026 29.24174332 90.41290383 24.0625 99.5 C19.45816344 106.68781717 12.9752654 110.3415782 5 113 C-5.22850478 114.03816771 -13.92615856 111.42237387 -22 105 C-28.59908631 98.8250195 -33.12828478 90.60350358 -33.6875 81.5 C-33.31735062 73.89016416 -29.38076833 67.29868489 -24.125 61.9375 C-21.52178497 58.33893805 -21.21391786 56.30584729 -21.4609375 51.9375 C-22.94431466 43.85416938 -26.83553414 36.36579054 -30.40234375 29.0234375 C-30.81105713 28.179021 -31.21977051 27.33460449 -31.64086914 26.46459961 C-32.44863926 24.81054846 -33.26900244 23.16257371 -34.10327148 21.52172852 C-36.21729267 17.23975934 -37.77646627 13.89771032 -37 9 C-34.625 7.0625 -34.625 7.0625 -32 6 C-31.34 6.33 -30.68 6.66 -30 7 C-32.475 8.485 -32.475 8.485 -35 10 C-34.373261 13.97920137 -33.11903505 17.19709839 -31.3828125 20.82421875 C-30.59583984 22.49194336 -30.59583984 22.49194336 -29.79296875 24.19335938 C-28.69003248 26.50384296 -27.58588584 28.81374918 -26.48046875 31.12304688 C-16.73177339 51.80029193 -16.73177339 51.80029193 -19 59 C-21.11818771 62.25384256 -23.36332692 65.17336261 -25.8359375 68.16796875 C-30.39742441 74.13742364 -30.79394255 79.68788714 -30 87 C-27.74843366 95.49509893 -23.67651043 101.46760319 -16.25 106.25 C-8.80288885 110.45348052 -1.40766471 112.21101217 7 110 C15.04928805 106.85617032 20.59194374 101.65760756 24.54296875 94.015625 C27.63190723 86.7821444 29.51659326 79.84672166 28 72 C25.0134087 64.70193855 19.63822255 60.83568136 13 57 C7.91991536 54.04431439 6.54397024 52.62677021 5 47 C4.40405046 44.20065759 3.93771701 41.39055061 3.5 38.5625 C3.37181885 37.75425781 3.2436377 36.94601563 3.11157227 36.11328125 C1.92821625 28.26881199 1.26639003 20.39184397 0.734375 12.47875977 C0.63189453 11.08161743 0.63189453 11.08161743 0.52734375 9.65625 C0.44601196 8.41584961 0.44601196 8.41584961 0.36303711 7.15039062 C0.10158196 4.70988492 0.10158196 4.70988492 -2 2 C-4.89608399 1.63501966 -4.89608399 1.63501966 -8.125 1.8125 C-9.22070312 1.83957031 -10.31640625 1.86664063 -11.4453125 1.89453125 C-12.28835938 1.92933594 -13.13140625 1.96414062 -14 2 C-14 1.67 -14 1.34 -14 1 C-9.45352102 -0.1732849 -4.66972706 -0.54128467 0 0 Z " fill="#E6E7EA" transform="translate(307,188)"/>
<path d="M0 0 C17.42350887 -0.77581487 33.85106537 6.86971811 46.84765625 18.08203125 C55.0897023 25.86944486 60.85607442 34.15782869 66.04296875 44.15625 C66.52765625 45.07277344 67.01234375 45.98929688 67.51171875 46.93359375 C74.40333891 60.90593341 76.22128332 76.13647184 76.23046875 91.53125 C76.24271484 92.60375 76.25496094 93.67625 76.26757812 94.78125 C76.27980539 101.48179173 75.65132677 107.64809534 74.04296875 114.15625 C73.71296875 114.15625 73.38296875 114.15625 73.04296875 114.15625 C73.0586792 112.51595825 73.0586792 112.51595825 73.07470703 110.8425293 C73.11125031 106.7367691 73.13399255 102.6310229 73.15283203 98.52514648 C73.16281214 96.75721814 73.17640103 94.98930597 73.19384766 93.22143555 C73.33862496 79.07820696 73.33862496 79.07820696 71.04296875 65.15625 C70.78257812 64.04894531 70.5221875 62.94164062 70.25390625 61.80078125 C64.07686733 40.87389705 52.80059406 22.69246504 33.40087891 11.91162109 C19.29364454 4.3143491 4.24749378 0.10805589 -11.73046875 4.4765625 C-12.83261719 4.81300781 -12.83261719 4.81300781 -13.95703125 5.15625 C-14.87742187 5.40117187 -15.7978125 5.64609375 -16.74609375 5.8984375 C-28.95325404 9.46280213 -38.63603889 16.62960316 -46.95703125 26.15625 C-47.28703125 26.81625 -47.61703125 27.47625 -47.95703125 28.15625 C-48.61703125 28.15625 -49.27703125 28.15625 -49.95703125 28.15625 C-50.18390625 28.836875 -50.41078125 29.5175 -50.64453125 30.21875 C-51.95703125 33.15625 -51.95703125 33.15625 -54.14453125 36.03125 C-61.29102533 45.77839134 -65.08012877 57.55929528 -67.95703125 69.15625 C-68.28703125 69.15625 -68.61703125 69.15625 -68.95703125 69.15625 C-68.17360881 53.74894202 -60.11933177 38.70320486 -50.4375 26.9609375 C-48.79170137 25.01535388 -48.79170137 25.01535388 -46.95703125 22.15625 C-46.29703125 22.15625 -45.63703125 22.15625 -44.95703125 22.15625 C-44.95703125 21.49625 -44.95703125 20.83625 -44.95703125 20.15625 C-35.4477345 9.22941833 -19.74429255 2.48687173 -5.70703125 0.40625 C-3.80409788 0.27938778 -1.90110776 0.15178505 0 0 Z " fill="#E6E7E9" transform="translate(299.95703125,170.84375)"/>
<path d="M0 0 C0.33 0 0.66 0 1 0 C1.3407963 9.60540696 0.81320824 18.17799407 -1.25390625 27.59375 C-3.00331103 35.58056134 -4.13390504 42.57502493 0 50 C4.63843944 55.86840765 10.51335681 61.47215962 18.1875 62.375 C20.91255122 62.01165984 22.67386547 61.4314674 25 60 C25 59.34 25 58.68 25 58 C26.65483608 56.50122497 28.37590512 55.07511527 30.125 53.6875 C33.31199292 51.15508843 36.43844107 48.62607473 39.4375 45.875 C40.7059375 44.946875 40.7059375 44.946875 42 44 C44.16015625 44.3828125 44.16015625 44.3828125 46 45 C44.63178388 56.72756673 36.74398628 64.92472316 28.140625 72.4765625 C21.91077748 76.91021311 14.97347865 77.48535041 7.625 76.3125 C-4.08437991 73.86697252 -13.72036232 69.0912756 -20.6875 59.1328125 C-29.3251722 45.09659518 -29.88635884 28.6833576 -26.5 12.875 C-26.01923032 10.91185712 -25.52702164 8.9512349 -25 7 C-24.67 7 -24.34 7 -24 7 C-24.8486924 18.15940224 -24.8486924 18.15940224 -25.5625 22.125 C-27.61321591 35.60113312 -24.43013748 49.60033701 -17 61 C-10.24449455 69.39039947 0.89243885 73.04616928 11.32421875 74.2734375 C18.25530118 74.5713022 23.31588138 73.00027988 29 69 C34.11262183 64.29029933 39.14674189 58.40611317 42 52 C42 50.68 42 49.36 42 48 C36.47638131 52.35777294 31.03059179 56.76195927 25.7890625 61.45703125 C23.90407037 63.08273407 22.08336048 64.63344966 20 66 C10.15487014 64.39730444 1.65003011 55.667898 -4 48 C-6.86908018 39.39275946 -4.55342665 30.27716737 -2.66015625 21.69140625 C-1.86297471 17.23379349 -1.88738844 13.05196383 -2.02734375 8.54296875 C-1.99364155 5.40866422 -1.26951571 2.85641034 0 0 Z " fill="#E4E4E6" transform="translate(418,222)"/>
<path d="M0 0 C0.33 0 0.66 0 1 0 C0.97905273 0.92522461 0.95810547 1.85044922 0.93652344 2.80371094 C0.38091519 31.11159932 0.57989674 59.58314231 20.5234375 82.02734375 C22.80492884 84.14825218 22.80492884 84.14825218 25.4140625 84.50390625 C27.87310222 84.31038639 27.87310222 84.31038639 31 83 C33.20885725 89.68861139 34.01728769 96.50138591 34.953125 103.46484375 C35.23246422 105.4617681 35.51182706 107.45868942 35.79247665 109.45543003 C36.47839601 114.34040617 37.15614882 119.2263708 37.81201172 124.11547852 C42.21628426 157.78970008 42.21628426 157.78970008 62 184.5625 C68.46582967 189.32415751 75.27209284 192.02691732 83 194 C83 194.33 83 194.66 83 195 C70.76555259 194.4335904 62.05255473 188.46450871 53.76171875 179.609375 C40.46114341 163.67874239 38.0955685 144.93216487 35.29156494 125.05310059 C34.86417787 122.04358702 34.42646325 119.03559465 33.98924255 116.02749634 C32.96787655 108.99884658 31.95292556 101.9692512 30.953125 94.9375 C30.76911133 93.64714844 30.58509766 92.35679687 30.39550781 91.02734375 C30 88 30 88 30 86 C28.700625 86.226875 27.40125 86.45375 26.0625 86.6875 C22.70773791 86.65595051 21.32909365 86.26261008 18.6796875 84.1484375 C6.42258081 70.0121925 -1.61718369 48.703311 -2 30 C-2.03867188 28.70578125 -2.07734375 27.4115625 -2.1171875 26.078125 C-2.2970909 17.16134865 -1.70948701 8.77638421 0 0 Z " fill="#E0E2E6" transform="translate(230,241)"/>
<path d="M0 0 C4.77474568 1.62161174 8.06794287 4.28401692 11.3125 8.125 C12.39212948 11.67235402 11.79906782 13.21074835 10.0859375 16.4296875 C5.64297063 23.56121894 5.64297063 23.56121894 1.3125 25.125 C-1.4375 24.75 -1.4375 24.75 -3.6875 24.125 C-6.8104366 28.95135657 -9.74364921 33.86433738 -12.5625 38.875 C-13.17867187 39.96296875 -13.79484375 41.0509375 -14.4296875 42.171875 C-15.86000607 44.92908161 -15.86000607 44.92908161 -15.5703125 47.328125 C-14.53902785 49.42719994 -13.43512908 50.57155193 -11.6875 52.125 C-6.29267796 57.27409516 -0.85705915 63.70330333 2.44140625 70.42578125 C3.76787051 73.0132788 5.60302738 73.18257474 8.3125 74.125 C15.80549208 77.13633455 15.80549208 77.13633455 17.5625 80.5625 C17.21571454 84.11705095 15.77057477 85.59864537 13.3125 88.125 C9.8772952 90.41513653 8.327169 90.30342973 4.3125 90.125 C3.9825 89.465 3.6525 88.805 3.3125 88.125 C4.405625 88.021875 5.49875 87.91875 6.625 87.8125 C10.16494788 87.39349 10.16494788 87.39349 12.25 85.875 C13.65724179 83.55718999 13.38657449 81.79168177 13.3125 79.125 C12.65765625 78.86589844 12.0028125 78.60679687 11.328125 78.33984375 C2.23581942 74.14043143 -2.54809192 67.68941815 -8.36865234 59.87060547 C-10.07792965 57.60823361 -11.88730015 55.44970299 -13.75 53.3125 C-14.25660156 52.72855469 -14.76320313 52.14460938 -15.28515625 51.54296875 C-16.83349905 49.88210657 -16.83349905 49.88210657 -19.6875 48.125 C-19.04311576 44.76499649 -17.75845855 42.38161998 -15.9375 39.5 C-13.28126574 35.20034023 -11.00124673 30.83106259 -8.86328125 26.25390625 C-7.64629874 24.05039972 -6.70837005 22.62868056 -4.6875 21.125 C-2.42578125 20.83203125 -2.42578125 20.83203125 0 20.9375 C0.80824219 20.96457031 1.61648437 20.99164063 2.44921875 21.01953125 C3.06410156 21.05433594 3.67898437 21.08914062 4.3125 21.125 C6.52273335 17.67151039 8.11808111 15.00872224 9 11 C8.09110352 7.19916017 6.4051022 6.19896171 3.234375 4.10546875 C1.26940454 3.10301431 -0.53297743 2.56829778 -2.6875 2.125 C-2.9453125 2.71023437 -3.203125 3.29546875 -3.46875 3.8984375 C-4.78017422 6.29430868 -6.25771829 7.82839533 -8.1875 9.75 C-12.23186285 14.24652764 -12.9070664 18.27656552 -13.6875 24.125 C-14.276062 26.479248 -14.94490651 28.81470915 -15.6875 31.125 C-15.94144531 31.94226563 -16.19539063 32.75953125 -16.45703125 33.6015625 C-18.63885546 39.89635747 -20.70487625 43.02685556 -26.6875 46.125 C-28.90625 45.73828125 -28.90625 45.73828125 -30.6875 45.125 C-29.635625 44.63 -28.58375 44.135 -27.5 43.625 C-22.01926684 40.48522777 -19.61501327 35.66345737 -17.5 29.875 C-16.64791175 26.31737641 -16.64791175 26.31737641 -16.4453125 23.40625 C-15.49829729 14.44425244 -11.85956618 9.53910799 -5.6875 3.125 C-5.15382813 2.53074219 -4.62015625 1.93648437 -4.0703125 1.32421875 C-2.6875 0.125 -2.6875 0.125 0 0 Z " fill="#E7E7E9" transform="translate(104.6875,207.875)"/>
<path d="M0 0 C0.99 0.33 1.98 0.66 3 1 C2.875 3.25 2.875 3.25 2 6 C0.03277992 7.38123963 -1.96868328 8.71488126 -4 10 C-5.38868516 12.10039331 -5.38868516 12.10039331 -6 14 C-6.33 14 -6.66 14 -7 14 C-7.3125 11.6875 -7.3125 11.6875 -7 9 C-4.6167054 7.18116991 -3.04181663 6 0 6 C0.33 4.68 0.66 3.36 1 2 C-14.00550939 0.70414317 -14.00550939 0.70414317 -29 1 C-31.35953094 3.35953094 -31.49141413 4.77895617 -32 8 C-30.824375 8.433125 -30.824375 8.433125 -29.625 8.875 C-27 10 -27 10 -25 12 C-24.6820916 14.67708354 -24.48348158 17.26561671 -24.3671875 19.953125 C-24.32539871 20.75728348 -24.28360992 21.56144196 -24.24055481 22.38996887 C-24.108031 25.00958427 -23.9904416 27.62957988 -23.875 30.25 C-23.83363922 31.13493134 -23.79227844 32.01986267 -23.74966431 32.93161011 C-23.26501749 43.30262739 -22.79999356 53.67989751 -22.6875 64.0625 C-22.66993652 64.9090918 -22.65237305 65.75568359 -22.63427734 66.62792969 C-22.64033426 72.44498832 -23.74079144 76.74079144 -28 81 C-27.83333333 83.08333333 -27.83333333 83.08333333 -27 85 C-24.59454362 86.20272819 -23.05003047 86.10071472 -20.375 86.0625 C-19.55773437 86.05347656 -18.74046875 86.04445313 -17.8984375 86.03515625 C-17.27195312 86.02355469 -16.64546875 86.01195312 -16 86 C-16 85.34 -16 84.68 -16 84 C-4.7429635 83.44536499 5.93052592 85.14589068 17 87 C17 87.33 17 87.66 17 88 C7.1069323 88.16100834 7.1069323 88.16100834 2.5625 87.5 C-3.47118928 86.65316642 -10.16761821 86.05587274 -16 88 C-17.83056393 88.11854556 -19.66564306 88.17517233 -21.5 88.1875 C-22.4590625 88.20167969 -23.418125 88.21585937 -24.40625 88.23046875 C-27 88 -27 88 -30 86 C-30.375 82.5625 -30.375 82.5625 -30 79 C-28.5625 77.25 -28.5625 77.25 -27 76 C-25.81239211 72.43717633 -25.87042424 69.58507645 -25.8671875 65.82421875 C-25.86573227 65.11039536 -25.86427704 64.39657196 -25.86277771 63.66111755 C-25.86052969 61.33652498 -25.8668071 59.01207799 -25.875 56.6875 C-25.87688324 55.90010437 -25.87876648 55.11270874 -25.88070679 54.30145264 C-25.90811286 44.5744033 -25.96787356 34.84669123 -26.3125 25.125 C-26.33489746 24.25447998 -26.35729492 23.38395996 -26.38037109 22.48706055 C-26.58660599 17.86823864 -27.0662105 14.77303979 -30 11 C-30.7425 10.34 -31.485 9.68 -32.25 9 C-34 7 -34 7 -34 4.5 C-29.25493587 -7.36266033 -10.25474912 -1.42774454 0 0 Z " fill="#E2E2E4" transform="translate(506,331)"/>
<path d="M0 0 C1.00289063 0.44085938 2.00578125 0.88171875 3.0390625 1.3359375 C7.68244007 3.4864103 11.53774917 5.29933933 14 10 C14.72335173 14.34011041 14.26499269 17.09691545 11.9375 20.75 C9.13430057 24.25597338 6.36991235 25.79450694 2 27 C-1.8444629 26.93483961 -4.05468968 26.78263741 -7.04296875 24.30859375 C-9.26095342 21.69216872 -10.36855712 19.31069066 -11.625 16.125 C-12.02976562 15.11695313 -12.43453125 14.10890625 -12.8515625 13.0703125 C-13.97464523 10.0677852 -15.00820888 7.04816535 -16 4 C-18.31 4 -20.62 4 -23 4 C-25.97097921 9.37484842 -27.24170003 14.59088084 -28.54882812 20.51757812 C-28.97616059 22.35905495 -29.48204937 24.1819304 -30 26 C-30.99 26.495 -30.99 26.495 -32 27 C-30.66873221 18.25917597 -28.98313832 8.96627663 -25 1 C-23.56416999 0.89163547 -22.1259798 0.81423833 -20.6875 0.75 C-19.88699219 0.70359375 -19.08648437 0.6571875 -18.26171875 0.609375 C-16 1 -16 1 -14.39453125 2.51171875 C-12.13060466 6.55127403 -10.75159171 10.87622931 -9.25 15.24414062 C-7.49932825 20.22654552 -7.49932825 20.22654552 -4 24 C1.34501865 24.51725987 4.65522297 24.45026411 9 21 C11.0882482 17.8676277 11.69317294 15.81179435 11.53515625 12.046875 C10.64672842 8.64880065 8.74271036 7.37452011 5.85546875 5.51953125 C-5.91566839 -0.74445281 -16.95647353 -5.60444575 -30.55078125 -2.3984375 C-40.34844033 1.22280437 -46.48433134 9.69136616 -50.71484375 18.84765625 C-52.74095029 23.81746774 -54.45156563 28.86284127 -56 34 C-56.66 34 -57.32 34 -58 34 C-55.21999335 21.02663562 -49.62665794 7.16189853 -38.51171875 -0.77734375 C-25.1584918 -9.18493109 -13.56269171 -6.20765282 0 0 Z " fill="#E4E4E7" transform="translate(451,194)"/>
<path d="M0 0 C0.33 0 0.66 0 1 0 C0.85769192 1.41702513 0.71099254 2.8336096 0.5625 4.25 C0.48128906 5.03890625 0.40007812 5.8278125 0.31640625 6.640625 C0 9 0 9 -0.49072266 10.85571289 C-1.0337747 13.1422067 -1.27255084 15.32632592 -1.46484375 17.66796875 C-1.54283203 18.56193359 -1.62082031 19.45589844 -1.70117188 20.37695312 C-1.85706587 22.23093212 -2.01076027 24.08509757 -2.16210938 25.93945312 C-2.61596732 31.09424626 -3.36957029 35.99066118 -4.56567383 41.02368164 C-5.79901582 46.63576899 -6.0848286 52.71195887 -3.3125 57.875 C0.78075385 63.40642412 5.91470975 68.64617526 12 72 C15.13133808 72.39688488 16.49363892 72.38176198 19.04882812 70.45532227 C19.70302734 69.74947998 20.35722656 69.0436377 21.03125 68.31640625 C21.75957031 67.55392578 22.48789062 66.79144531 23.23828125 66.00585938 C23.98464844 65.19955078 24.73101562 64.39324219 25.5 63.5625 C26.97990446 61.97141101 28.46917479 60.38896963 29.96875 58.81640625 C30.95004883 57.75595093 30.95004883 57.75595093 31.95117188 56.67407227 C34.31102827 54.74586263 36.00611968 54.34822392 39 54 C40.54505062 58.44202052 39.14917539 61.1757217 37.359375 65.34375 C33.43400411 73.01401496 26.83538131 81.08230935 19 85 C11.96406759 86.33953329 5.89625367 85.7754185 -1 84 C-1 83.67 -1 83.34 -1 83 C0.21816406 83.04640625 1.43632812 83.0928125 2.69140625 83.140625 C4.31507948 83.17816658 5.93877945 83.21456417 7.5625 83.25 C8.36236328 83.28351563 9.16222656 83.31703125 9.98632812 83.3515625 C16.8511325 83.46364094 20.88057337 81.84453463 26.0390625 77.140625 C31.76667245 70.5493482 31.76667245 70.5493482 36 63 C35.69933533 60.81372787 35.69933533 60.81372787 35 59 C34.52691406 59.49628906 34.05382812 59.99257813 33.56640625 60.50390625 C29.23002308 64.95863126 24.75152315 68.91266096 19.78515625 72.65234375 C18.07548482 73.87841227 18.07548482 73.87841227 17 75 C12.22811386 75.66229025 9.87895401 73.94290314 6.125 71.125 C-0.16329983 66.33308531 -5.46490787 60.60527639 -8 53 C-8.2286802 48.10976197 -7.66905765 43.87949171 -6.5625 39.125 C-5.3269497 33.5322495 -4.75348601 28.15733598 -4.5625 22.4375 C-4.27990726 14.47658914 -2.56760968 7.53563586 0 0 Z " fill="#E7E7E8" transform="translate(421,334)"/>
<path d="M0 0 C2.27754866 2.59558474 2.96001833 3.79209532 3.625 7.25 C2.74040349 12.55757908 -0.13616793 15.4009273 -4 19 C-7.36609859 21.24406572 -9.06741246 21.29795399 -13.0078125 20.6484375 C-16.55783529 19.49293988 -18.29699297 17.14354344 -20 14 C-21.51789433 10.38772883 -22.76165658 6.71503025 -24 3 C-24.65515683 1.32877538 -25.31834598 -0.33940673 -26 -2 C-27.98 -2 -29.96 -2 -32 -2 C-33.71767682 1.98188718 -35.41037341 5.96479403 -37 10 C-38.12021481 6.67720067 -37.88681157 4.73090999 -36.75 1.4375 C-36.49734375 0.67308594 -36.2446875 -0.09132813 -35.984375 -0.87890625 C-34.95044218 -3.1067853 -33.8320419 -4.38924406 -32 -6 C-28.41812869 -5.81271261 -25.90488178 -5.14559565 -23 -3 C-21.56718653 0.34687726 -20.56645864 3.48593143 -19.76098633 7.02148438 C-18.58665831 11.98966164 -17.13170101 14.68828273 -13 18 C-9.71935545 18.78450196 -7.99570517 18.59905875 -5.09765625 16.85546875 C-1.97035539 14.4316507 -0.25008888 12.72084442 1.0625 8.9375 C0.99315738 5.67839697 0.7037349 3.78792984 -1 1 C-2.65236533 0.2986363 -4.32269003 -0.36058349 -6 -1 C-8.21274546 -2.15827663 -10.42071258 -3.32570693 -12.625 -4.5 C-22.22819544 -9.37577794 -29.78473613 -11.18189546 -40.27734375 -8.02734375 C-48.77397769 -4.8212968 -52.95095556 0.97921984 -57 9 C-59.91423424 16.13284599 -61.90250228 23.59706689 -64 31 C-64.33 31 -64.66 31 -65 31 C-64.32068943 17.86666225 -59.22077051 4.32834251 -49.90234375 -5.12890625 C-33.75327537 -18.77159364 -15.42214422 -11.37308705 0 0 Z " fill="#E5E6E8" transform="translate(460,322)"/>
<path d="M0 0 C1.24652344 -0.00257813 2.49304688 -0.00515625 3.77734375 -0.0078125 C7.0625 0.125 7.0625 0.125 10.0625 1.125 C10.0625 1.785 10.0625 2.445 10.0625 3.125 C9.35609375 2.96257812 8.6496875 2.80015625 7.921875 2.6328125 C4.99144105 2.11238024 2.28602867 1.99196344 -0.6875 2 C-1.65171875 1.99742187 -2.6159375 1.99484375 -3.609375 1.9921875 C-5.89800141 1.86360602 -5.89800141 1.86360602 -6.9375 3.125 C-7.06010293 4.80689962 -7.11739843 6.49361087 -7.1484375 8.1796875 C-7.17478271 9.25653809 -7.20112793 10.33338867 -7.22827148 11.44287109 C-7.25606689 12.61672363 -7.2838623 13.79057617 -7.3125 15 C-7.86981027 33.54142709 -10.01904943 51.8171703 -12.9375 70.125 C-12.27596924 70.1154126 -11.61443848 70.1058252 -10.93286133 70.09594727 C-10.17126709 70.08490967 -9.40967285 70.07387207 -8.625 70.0625 C-7.42423828 70.04509766 -7.42423828 70.04509766 -6.19921875 70.02734375 C-1.42548319 70.17026996 3.31087595 70.6586184 8.0625 71.125 C8.0917814 66.64584729 8.10939296 62.16671958 8.125 57.6875 C8.13337891 56.42744141 8.14175781 55.16738281 8.15039062 53.86914062 C8.16784456 47.18428355 7.89436125 40.75368961 7.0625 34.125 C7.02399829 32.18788259 7.01712445 30.24946859 7.0625 28.3125 C7.13903359 24.99763875 6.891756 22.31988552 6.0625 19.125 C5.94044671 16.44959184 6.01782687 13.80538762 6.0625 11.125 C6.7225 11.125 7.3825 11.125 8.0625 11.125 C10.80632648 23.61451456 10.28645682 36.22715004 10.1875 48.9375 C10.17745025 51.19075123 10.16832793 53.4440068 10.16015625 55.69726562 C10.13830066 61.17327297 10.1049812 66.64911583 10.0625 72.125 C6.73435759 72.88946891 3.82351968 73.21240937 0.41796875 73.00390625 C-0.42314453 72.95556641 -1.26425781 72.90722656 -2.13085938 72.85742188 C-2.99517578 72.80134766 -3.85949219 72.74527344 -4.75 72.6875 C-5.63365234 72.63529297 -6.51730469 72.58308594 -7.42773438 72.52929688 C-9.59800408 72.40025381 -11.76780693 72.26340044 -13.9375 72.125 C-16.27652983 68.03838711 -15.69952512 65.25416582 -14.6875 60.8125 C-11.76244159 47.16682659 -10.62529764 33.78284281 -10.375 19.875 C-10.33084297 17.65267083 -10.28422767 15.43047213 -10.23219299 13.20831299 C-10.18626189 11.22460828 -10.14842327 9.24072097 -10.11108398 7.25683594 C-9.9375 4.125 -9.9375 4.125 -8.9375 1.125 C-5.97950997 -0.35399501 -3.2891424 -0.00678874 0 0 Z " fill="#D5D6D6" transform="translate(183.9375,337.875)"/>
<path d="M0 0 C0.98009033 -0.01297119 1.96018066 -0.02594238 2.9699707 -0.03930664 C4.36155396 -0.04111938 4.36155396 -0.04111938 5.78125 -0.04296875 C6.61720703 -0.04707764 7.45316406 -0.05118652 8.31445312 -0.05541992 C10.5 0.1875 10.5 0.1875 13.5 2.1875 C1.62 2.5175 -10.26 2.8475 -22.5 3.1875 C-22.5 4.5075 -22.5 5.8275 -22.5 7.1875 C-20.53814584 8.89890469 -18.53697617 10.56623325 -16.5 12.1875 C-15.30174543 15.78226372 -15.35391256 19.07299399 -15.375 22.8125 C-15.37113281 23.50601562 -15.36726562 24.19953125 -15.36328125 24.9140625 C-15.37333354 30.06083354 -15.37333354 30.06083354 -16.5 31.1875 C-16.6216807 32.7911989 -16.67972243 34.39980691 -16.7109375 36.0078125 C-17.60574852 70.40832507 -17.60574852 70.40832507 -25.5 78.1875 C-28.3125 79.1875 -28.3125 79.1875 -30.5 79.1875 C-29.125 77.6875 -29.125 77.6875 -27.5 76.1875 C-26.84 76.1875 -26.18 76.1875 -25.5 76.1875 C-25.21125 75.32125 -24.9225 74.455 -24.625 73.5625 C-23.92078403 71.44985208 -23.19495803 69.34414868 -22.4375 67.25 C-19.84729557 58.78866554 -20.16526772 49.85283787 -19.89453125 41.08398438 C-19.85714844 40.00052734 -19.81976563 38.91707031 -19.78125 37.80078125 C-19.75095703 36.81891846 -19.72066406 35.83705566 -19.68945312 34.82543945 C-19.52022637 32.46913135 -19.11653624 30.45626899 -18.5 28.1875 C-17.66497878 20.46191435 -17.66497878 20.46191435 -19.51171875 13.109375 C-21.26353486 11.02613422 -23.3224074 9.34141359 -25.375 7.5625 C-26.5 6.1875 -26.5 6.1875 -26.375 4.0625 C-26.08625 3.44375 -25.7975 2.825 -25.5 2.1875 C-17.42516696 -0.50411101 -8.42592238 0.06080492 0 0 Z " fill="#D0D0CF" transform="translate(185.5,330.8125)"/>
<path d="M0 0 C2.31 0 4.62 0 7 0 C6.67 0.66 6.34 1.32 6 2 C5.01 2 4.02 2 3 2 C3 2.66 3 3.32 3 4 C3.66 4 4.32 4 5 4 C12.59944826 19.93670704 12.45019686 36.60551358 13.05200195 54.00292969 C13.1418128 56.32085856 13.25161295 58.63810533 13.38208008 60.95410156 C14.26174849 76.81297594 12.98135961 88.06166183 4.02851868 101.44934082 C2.93269673 103.03318727 2.93269673 103.03318727 2 105 C5.3 105 8.6 105 12 105 C12 105.33 12 105.66 12 106 C6.555 106.495 6.555 106.495 1 107 C-0.13827879 102.44688482 0.15166316 102.02305531 2.34375 98.15625 C2.84777344 97.23972656 3.35179687 96.32320313 3.87109375 95.37890625 C4.95703125 93.45963542 6.04296875 91.54036458 7.12890625 89.62109375 C7.63292969 88.70457031 8.13695312 87.78804688 8.65625 86.84375 C9.12869141 86.01037109 9.60113281 85.17699219 10.08789062 84.31835938 C11.1786325 81.5459598 10.73387224 80.80899816 10 78 C9.90737653 76.34403665 9.8648132 74.68490552 9.8581543 73.02636719 C9.85111984 72.03723328 9.84408539 71.04809937 9.83683777 70.0289917 C9.83267349 68.96239319 9.82850922 67.89579468 9.82421875 66.796875 C9.80099243 64.5130119 9.77687402 62.22915774 9.75195312 59.9453125 C9.71708483 56.36485052 9.68763145 52.78471135 9.67407227 49.20410156 C10.17086587 24.60835289 10.17086587 24.60835289 0 3 C0 2.01 0 1.02 0 0 Z " fill="#E9E9EC" transform="translate(131,193)"/>
<path d="M0 0 C0.98852746 2.66902415 1.12752384 3.69713089 0 6.375 C-1.31534292 9.82777517 -1.04313031 11.45335693 0 15 C0.81102855 16.22341595 1.64684332 17.43058065 2.5 18.625 C5.88028085 23.74455327 6.26707634 28.965744 6 35 C4.33031933 41.2613025 0.44064045 45.45738242 -4 50 C-4.52464844 50.54914063 -5.04929688 51.09828125 -5.58984375 51.6640625 C-12.68957273 58.43397522 -22.30294634 61.7712959 -32 62 C-33.12921875 62.05027344 -34.2584375 62.10054688 -35.421875 62.15234375 C-48.98494166 62.51001956 -48.98494166 62.51001956 -54.86328125 57.37109375 C-60.15361156 51.94932666 -62.88594324 45.81051167 -63.06640625 38.19921875 C-63.04449219 37.47347656 -63.02257812 36.74773437 -63 36 C-60.75 34.875 -60.75 34.875 -58 34 C-55.6875 34.875 -55.6875 34.875 -54 36 C-56.31 36 -58.62 36 -61 36 C-59.87296038 44.20069616 -58.74000982 50.61618159 -52.375 56.375 C-44.61991379 61.68111161 -31.07705495 59.90293152 -22.15625 58.31640625 C-11.66480673 55.05811008 -4.76458535 48.43464508 2 40 C4.39743534 35.20512933 3.68280846 28.32560504 2.2109375 23.3125 C0.90046627 20.27140646 -0.20836294 17.74274736 -2.64453125 15.45703125 C-3.31548828 14.73580078 -3.31548828 14.73580078 -4 14 C-3.79803126 8.74881279 -2.19526128 4.67686099 0 0 Z " fill="#E7E7E8" transform="translate(134,362)"/>
<path d="M0 0 C4.42656512 0.97384433 6.43560334 1.44843054 9.75 4.6875 C13.84396587 7.60051417 15.6847183 7.40086525 20.5234375 6.734375 C25.83573682 5.61222638 31.07118292 4.19225668 36.27416992 2.64111328 C40.89875354 1.31408784 44.21453764 0.72079428 49 2 C49 2.33 49 2.66 49 3 C47.40285156 3.25523437 47.40285156 3.25523437 45.7734375 3.515625 C37.28609464 4.91806111 29.16656559 6.63214098 20.953125 9.23046875 C18.06476123 9.98312439 15.95653426 10.37078647 13 10 C10.8671875 8.72265625 10.8671875 8.72265625 8.875 7.0625 C6.44936561 5.06630672 5.02701046 4.00900349 2 3 C1.832147 7.53203087 2.01492991 11.50468458 3 15.9375 C4.0553916 20.73135622 4.15805529 25.10028588 4 30 C10.85485151 27.18461456 17.15835686 23.7193251 23.50195312 19.91040039 C25.2928164 18.86508128 27.14363583 17.92401048 29 17 C29.99 17.33 30.98 17.66 32 18 C28.49072687 20.16518157 24.96582158 22.30352463 21.4375 24.4375 C20.44685547 25.04916016 19.45621094 25.66082031 18.43554688 26.29101562 C13.23354087 29.41913219 9.12849867 31.80230649 3 32 C1.00043516 28.00087031 0.99981825 23.14630632 0.4375 18.75 C0.29892578 17.71230469 0.16035156 16.67460937 0.01757812 15.60546875 C-1.29376767 5.48937261 -1.29376767 5.48937261 -1 1 C-0.67 0.67 -0.34 0.34 0 0 Z " fill="#DBDDE0" transform="translate(69,330)"/>
<path d="M0 0 C9.67891088 0.63600968 17.17937435 8.31102217 23.26953125 15.21484375 C24.19344364 16.37578078 25.11135887 17.54155273 26.01953125 18.71484375 C28.05759159 21.38281774 28.05759159 21.38281774 30.95703125 22.15234375 C33.29722018 22.39733897 33.29722018 22.39733897 35.26953125 21.21484375 C34.93953125 22.53484375 34.60953125 23.85484375 34.26953125 25.21484375 C28.79262346 24.8327339 26.93583107 23.16869649 23.26953125 19.21484375 C21.68182238 17.38529843 20.09856106 15.55188496 18.51953125 13.71484375 C14.34939983 9.10967626 10.24972367 5.22303452 4.26953125 3.21484375 C1.59468664 3.06296875 1.59468664 3.06296875 -0.73046875 3.21484375 C-0.56748291 3.99424316 -0.40449707 4.77364258 -0.23657227 5.57666016 C0.40905406 10.21781961 0.39311543 14.74646009 0.3671875 19.42578125 C0.36577255 20.39391754 0.3643576 21.36205383 0.36289978 22.35952759 C0.3573249 25.43633174 0.34477702 28.51306178 0.33203125 31.58984375 C0.327013 33.68229061 0.32245066 35.77473862 0.31835938 37.8671875 C0.3073637 42.98310125 0.2901164 48.09895996 0.26953125 53.21484375 C-0.06046875 53.21484375 -0.39046875 53.21484375 -0.73046875 53.21484375 C-1.7147736 48.22507568 -1.92580362 43.40767546 -2.01171875 38.34375 C-2.03012817 37.50319565 -2.0485376 36.6626413 -2.06750488 35.7966156 C-2.12592722 33.12359215 -2.17887166 30.45050711 -2.23046875 27.77734375 C-2.29853977 24.25769037 -2.37222466 20.73821823 -2.44921875 17.21875 C-2.46279419 16.42062393 -2.47636963 15.62249786 -2.49035645 14.80018616 C-2.5690633 11.21776785 -2.74896965 7.75648791 -3.31054688 4.21459961 C-3.44912109 3.22468018 -3.58769531 2.23476074 -3.73046875 1.21484375 C-2.73046875 0.21484375 -2.73046875 0.21484375 0 0 Z " fill="#E3E4E3" transform="translate(526.73046875,217.78515625)"/>
<path d="M0 0 C8.067772 0.51992308 13.26325538 1.84914699 18.8125 8.0625 C24.65333938 14.98640893 23.60882251 22.726182 23.23095703 31.47558594 C22.59272729 38.45158544 19.97254734 44.57224943 15.5625 50 C14.716875 50.66 13.87125 51.32 13 52 C12.51402344 52.46019531 12.02804687 52.92039062 11.52734375 53.39453125 C9.06015533 55.68504122 7.51838329 56.94365399 4.125 57.3125 C3.42375 57.209375 2.7225 57.10625 2 57 C3.8999146 55.73339027 5.83537229 54.51734045 7.8125 53.375 C13.55376785 49.09719258 17.20770187 43.95506841 19 37 C19.46841266 33.35955537 19.6894535 29.72704338 19.875 26.0625 C19.9471875 25.09892578 20.019375 24.13535156 20.09375 23.14257812 C20.42521843 16.76181093 19.81045109 13.18111695 16 8 C11.20787299 3.7783643 6.13496858 2.92145773 0 2 C0 1.34 0 0.68 0 0 Z " fill="#E3E4E4" transform="translate(524,361)"/>
<path d="M0 0 C0.33 0 0.66 0 1 0 C1 12.54 1 25.08 1 38 C2.98 38 4.96 38 7 38 C6.690625 39.1446875 6.690625 39.1446875 6.375 40.3125 C5.66608797 43.21885944 5.66608797 43.21885944 8 46 C5.36 46 2.72 46 0 46 C-0.33 55.57 -0.66 65.14 -1 75 C-1.33 75 -1.66 75 -2 75 C-2.04651049 66.55011925 -2.08196373 58.10029274 -2.10362434 49.65031528 C-2.11402469 45.72589634 -2.12811468 41.80156551 -2.15087891 37.87719727 C-2.17274194 34.08409201 -2.18459677 30.29107108 -2.18975449 26.49790764 C-2.19342624 25.05675875 -2.2005957 23.61561404 -2.21146011 22.17450142 C-2.26678774 14.5255856 -2.06746925 7.41498919 0 0 Z " fill="#DCDCDD" transform="translate(66,215)"/>
<path d="M0 0 C0.66 0 1.32 0 2 0 C-1.18631785 17.37991552 -9.84799713 31.31851555 -24 42 C-32.91927318 47.17658089 -41.72717162 49.42803452 -52 49 C-52 48.34 -52 47.68 -52 47 C-51.11699219 46.90203125 -50.23398437 46.8040625 -49.32421875 46.703125 C-33.81181571 44.7703229 -23.25299542 40.42625823 -12.8125 28.5 C-6.46684064 20.1978696 -2.67894246 10.02652738 0 0 Z " fill="#EAEAEA" transform="translate(367,389)"/>
<path d="M0 0 C-1.10794922 0.27263672 -1.10794922 0.27263672 -2.23828125 0.55078125 C-8.43066382 2.0851073 -14.5892863 3.69296744 -20.72265625 5.44921875 C-23 6 -23 6 -26 6 C-25.81824219 7.1645874 -25.63648438 8.3291748 -25.44921875 9.52905273 C-24.7714701 13.88347983 -24.10270084 18.23924792 -23.43652344 22.59545898 C-23.14792545 24.47441264 -22.85695018 26.35300286 -22.56347656 28.23120117 C-22.14009832 30.94355807 -21.72551674 33.65714211 -21.3125 36.37109375 C-21.18125732 37.19959335 -21.05001465 38.02809296 -20.91479492 38.88169861 C-20.09932176 44.31357162 -19.88440101 49.50663965 -20 55 C-20.33 55 -20.66 55 -21 55 C-21.20157715 53.73406006 -21.4031543 52.46812012 -21.61083984 51.16381836 C-22.36320064 46.44616194 -23.12119759 41.72942525 -23.88085938 37.01293945 C-24.20823347 34.97542392 -24.53409929 32.93766542 -24.85839844 30.8996582 C-25.32606546 27.96239367 -25.79923379 25.02605917 -26.2734375 22.08984375 C-26.41623138 21.18540024 -26.55902527 20.28095673 -26.70614624 19.34910583 C-27.50528338 14.4378416 -28.52238652 9.75270695 -30 5 C-6.56394453 -2.14175655 -6.56394453 -2.14175655 0 0 Z " fill="#E0E0E1" transform="translate(305,317)"/>
<path d="M0 0 C0.66 0 1.32 0 2 0 C1.54762239 1.91808109 1.08785537 3.83442033 0.625 5.75 C0.24214844 7.35101563 0.24214844 7.35101563 -0.1484375 8.984375 C-0.42945313 9.97953125 -0.71046875 10.9746875 -1 12 C-1.19851563 12.72703125 -1.39703125 13.4540625 -1.6015625 14.203125 C-5.46462273 19.16683368 -15.16190946 20.11999935 -21.0546875 21.4453125 C-21.99627716 21.66065643 -22.93786682 21.87600037 -23.9079895 22.09786987 C-25.8890384 22.54930444 -27.87073162 22.99791992 -29.85302734 23.44384766 C-32.86109529 24.12186588 -35.8661318 24.81226852 -38.87109375 25.50390625 C-40.80712157 25.94345822 -42.74331438 26.38228422 -44.6796875 26.8203125 C-45.5654245 27.02447784 -46.4511615 27.22864319 -47.36373901 27.43899536 C-53.22447987 28.74547362 -59.01423472 29.53378085 -65 30 C-62.41207164 27.41207164 -60.47169353 27.22840498 -56.91015625 26.4140625 C-55.65936279 26.12499023 -54.40856934 25.83591797 -53.11987305 25.53808594 C-51.76745589 25.23354394 -50.41499738 24.9291855 -49.0625 24.625 C-47.69104638 24.31072595 -46.31970871 23.99594549 -44.94848633 23.68066406 C-36.66523141 21.78499195 -28.3680814 19.94912353 -20.02563477 18.33056641 C-12.31022576 16.79486994 -12.31022576 16.79486994 -5 14 C-2.9017694 10.79875942 -2.9017694 10.79875942 -2 7 C-1.79890625 6.33613281 -1.5978125 5.67226563 -1.390625 4.98828125 C-0.8943077 3.33500807 -0.44264841 1.66844402 0 0 Z " fill="#E7E7E8" transform="translate(372,286)"/>
<path d="M0 0 C0.59554687 0.21011719 1.19109375 0.42023438 1.8046875 0.63671875 C0.11514021 12.08809479 -6.30425571 21.32222048 -15.1953125 28.63671875 C-22.05179155 32.74511 -29.88658942 31.84536057 -37.359375 30.109375 C-37.96523438 29.95339844 -38.57109375 29.79742187 -39.1953125 29.63671875 C-39.1953125 29.30671875 -39.1953125 28.97671875 -39.1953125 28.63671875 C-37.36806641 28.70632813 -37.36806641 28.70632813 -35.50390625 28.77734375 C-33.88023302 28.81488533 -32.25653305 28.85128292 -30.6328125 28.88671875 C-29.43301758 28.93699219 -29.43301758 28.93699219 -28.20898438 28.98828125 C-21.34418 29.10035969 -17.31473913 27.48125338 -12.15625 22.77734375 C-6.42864005 16.18606695 -6.42864005 16.18606695 -2.1953125 8.63671875 C-2.49597717 6.45044662 -2.49597717 6.45044662 -3.1953125 4.63671875 C-3.9790625 5.29671875 -4.7628125 5.95671875 -5.5703125 6.63671875 C-8.1953125 8.63671875 -8.1953125 8.63671875 -10.1953125 8.63671875 C-8.67883393 4.54222662 -4.76672094 -0.78879902 0 0 Z " fill="#DEDFE0" transform="translate(459.1953125,388.36328125)"/>
<path d="M0 0 C4.35453922 0.25614937 6.49609768 0.57277847 9.875 3.4375 C13.21685606 7.46738525 13.34921824 9.76172645 13 15 C11.11409369 20.43584759 7.6320232 23.76811108 3 27 C2.01 27.33 1.02 27.66 0 28 C0.41597179 33.30364037 1.05241136 36.34125931 5 40 C8.25327506 41.85390714 11.58455464 43.46826401 15 45 C11.60959867 46.13013378 11.23423454 45.99031591 8.1875 44.5 C3.81865901 42.14630707 0.49201278 39.33280271 -2 35 C-2.73289346 32.22859492 -2.89850141 29.8927098 -3 27 C-2.31292969 26.62488281 -1.62585938 26.24976563 -0.91796875 25.86328125 C-0.01691406 25.35152344 0.88414063 24.83976562 1.8125 24.3125 C2.70582031 23.81363281 3.59914063 23.31476563 4.51953125 22.80078125 C7.81639371 20.40731102 9.58967027 17.95183874 10.43359375 13.9375 C10.44089652 10.31532738 10.19768058 8.34974257 8.375 5.125 C5.68515727 2.71829861 3.47661483 1.86915371 0 1 C0 0.67 0 0.34 0 0 Z " fill="#E4E7EA" transform="translate(102,346)"/>
<path d="M0 0 C0.66 0 1.32 0 2 0 C1.01 12.21 0.02 24.42 -1 37 C4.61 37 10.22 37 16 37 C16.33 34.69 16.66 32.38 17 30 C17.66 29.67 18.32 29.34 19 29 C18.51171875 35.0546875 18.51171875 35.0546875 18 37 C14.95318939 39.03120707 14.39881676 39.24659875 10.98828125 39.1953125 C10.23095703 39.18886719 9.47363281 39.18242187 8.69335938 39.17578125 C7.90767578 39.15902344 7.12199219 39.14226562 6.3125 39.125 C5.51521484 39.11597656 4.71792969 39.10695312 3.89648438 39.09765625 C1.930861 39.07411585 -0.03460775 39.03824547 -2 39 C-2.3256513 4.65130261 -2.3256513 4.65130261 0 0 Z " fill="#E3E4E5" transform="translate(164,207)"/>
<path d="M0 0 C1.485 0.99 1.485 0.99 3 2 C2.40798032 9.1042361 0.33392408 14.43268352 -4.5 19.75 C-11.46025868 24.94816788 -20.50600366 26.82199965 -29 26 C-29.66 25.34 -30.32 24.68 -31 24 C-30.7578125 21.3984375 -30.7578125 21.3984375 -30.125 18.375 C-29.92132813 17.37210937 -29.71765625 16.36921875 -29.5078125 15.3359375 C-29.34023437 14.56507813 -29.17265625 13.79421875 -29 13 C-28.34 13.33 -27.68 13.66 -27 14 C-27 16.97 -27 19.94 -27 23 C-19.40788881 23.42178396 -12.7458574 22.19865543 -6.125 18.3125 C-2.10905006 13.94220154 0.23934277 9.5106797 0.25 3.5 C0.1675 2.345 0.085 1.19 0 0 Z " fill="#E5E4E5" transform="translate(118,392)"/>
<path d="M0 0 C2.01373487 2.01373487 2.69056244 3.37375331 3.8125 5.9375 C5.62566553 9.65784705 7.17184954 11.22597905 11 13 C13.5 14.5 13.5 14.5 16 16 C15.625 17.9375 15.625 17.9375 15 20 C11.78548731 21.60725635 8.56387464 21.05748185 5 21 C4.30374331 18.51336896 3.91173978 16.20565798 3.625 13.625 C2.98185727 9.89477215 1.70883562 7.34337405 0 4 C0 2.68 0 1.36 0 0 Z " fill="#E6E6E4" transform="translate(527,274)"/>
<path d="M0 0 C0.98009033 -0.01297119 1.96018066 -0.02594238 2.9699707 -0.03930664 C4.36155396 -0.04111938 4.36155396 -0.04111938 5.78125 -0.04296875 C6.61720703 -0.04707764 7.45316406 -0.05118652 8.31445312 -0.05541992 C10.5 0.1875 10.5 0.1875 13.5 2.1875 C1.62 2.5175 -10.26 2.8475 -22.5 3.1875 C-22.94160248 7.0183053 -22.94160248 7.0183053 -21.1875 8.671875 C-20.3521875 9.29835938 -20.3521875 9.29835938 -19.5 9.9375 C-18.51 10.68 -17.52 11.4225 -16.5 12.1875 C-16.83 13.1775 -17.16 14.1675 -17.5 15.1875 C-19.16666667 13.52083333 -20.83333333 11.85416667 -22.5 10.1875 C-23.28375 9.506875 -24.0675 8.82625 -24.875 8.125 C-26.5 6.1875 -26.5 6.1875 -26.4375 4 C-25.5 2.1875 -25.5 2.1875 -22.5 1.1875 C-15.0818822 -0.03129826 -7.49683937 0.05410028 0 0 Z " fill="#D9D9DA" transform="translate(185.5,330.8125)"/>
<path d="M0 0 C6.53829073 9.80743609 4.41087893 25.68150248 4.5625 37.0625 C4.60653683 40.01826169 4.65318248 42.97391973 4.70530701 45.92955017 C4.73710259 47.75691269 4.76404196 49.58436779 4.78553772 51.41188049 C4.79902756 52.23381393 4.8125174 53.05574738 4.82641602 53.90258789 C4.83592789 54.62362198 4.84543976 55.34465607 4.85523987 56.08753967 C4.93869614 58.22229134 4.93869614 58.22229134 6 61 C5.01 60.67 4.02 60.34 3 60 C2.96574669 59.18219559 2.96574669 59.18219559 2.93080139 58.34786987 C2.68980382 52.60371503 2.44591178 46.85968797 2.20043945 41.11572266 C2.109548 38.98033661 2.01936154 36.84492041 1.92993164 34.70947266 C1.44433729 23.12574161 0.94301193 11.55729024 0 0 Z " fill="#E2E3E4" transform="translate(207,348)"/>
<path d="M0 0 C2 2 2 2 2.15234375 4.1796875 C1.54182579 11.83891278 -0.72644499 18.07842428 -4 25 C-1.08527365 25.97157545 1.27597757 26.28253958 4.32421875 26.53515625 C5.35224609 26.62216797 6.38027344 26.70917969 7.43945312 26.79882812 C8.51130859 26.88583984 9.58316406 26.97285156 10.6875 27.0625 C11.77095703 27.15337891 12.85441406 27.24425781 13.97070312 27.33789062 C16.64687907 27.56188773 19.32329301 27.7824562 22 28 C21.67 28.66 21.34 29.32 21 30 C11.43 29.34 1.86 28.68 -8 28 C-7.1404157 23.7020785 -6.78838524 22.39802536 -4.5625 19.0625 C-1.0838442 13.13068809 -0.64236109 6.73999767 0 0 Z " fill="#E2E1E4" transform="translate(41,273)"/>
<path d="M0 0 C-1.98 0.99 -1.98 0.99 -4 2 C-4 6.95 -4 11.9 -4 17 C1.59639805 14.76144078 5.38863143 11.72207316 10.0625 7.99609375 C12.88645958 6.07715313 14.64982207 5.35102967 18 5 C18.33 5.66 18.66 6.32 19 7 C17.906875 7.309375 16.81375 7.61875 15.6875 7.9375 C10.43381374 9.85729623 6.66289759 13.37761327 2.515625 17.0390625 C0.18861116 18.85297702 -1.1272582 19.61070321 -4 20 C-7.47493817 14.20843638 -7.11459949 7.53217065 -7 1 C-4.53721199 -0.231394 -2.7204945 -0.07159196 0 0 Z " fill="#E3E2E1" transform="translate(154,410)"/>
<path d="M0 0 C2.31 0 4.62 0 7 0 C6.67 0.66 6.34 1.32 6 2 C5.01 2 4.02 2 3 2 C3 2.66 3 3.32 3 4 C3.66 4 4.32 4 5 4 C9.93583884 14.35088533 11.31429697 22.54562171 11 34 C10.67 34 10.34 34 10 34 C9.82984375 32.80503906 9.6596875 31.61007813 9.484375 30.37890625 C7.95030246 20.12518262 6.45383841 11.38998993 0 3 C0 2.01 0 1.02 0 0 Z " fill="#E0E2E4" transform="translate(131,193)"/>
<path d="M0 0 C0.66 0.33 1.32 0.66 2 1 C2 1.66 2 2.32 2 3 C2.66 3.2475 3.32 3.495 4 3.75 C4.99 4.1625 5.98 4.575 7 5 C8.02867188 5.41958984 8.02867188 5.41958984 9.078125 5.84765625 C14.65360726 8.32453416 14.65360726 8.32453416 16.25 11.4375 C15.90321454 14.99205095 14.45807477 16.47364537 12 19 C8.5647952 21.29013653 7.014669 21.17842973 3 21 C2.67 20.34 2.34 19.68 2 19 C3.093125 18.896875 4.18625 18.79375 5.3125 18.6875 C8.85244788 18.26849 8.85244788 18.26849 10.9375 16.75 C12.34474179 14.43218999 12.07407449 12.66668177 12 10 C11.22914062 9.60167969 10.45828125 9.20335937 9.6640625 8.79296875 C8.66117188 8.26316406 7.65828125 7.73335938 6.625 7.1875 C5.12839844 6.40439453 5.12839844 6.40439453 3.6015625 5.60546875 C1 4 1 4 -1 1 C-0.67 0.67 -0.34 0.34 0 0 Z " fill="#E6E7E9" transform="translate(106,277)"/>
<path d="M0 0 C0.66 0.33 1.32 0.66 2 1 C2.80653659 7.24810622 0.00101399 11.4823228 -2.9375 16.75 C-3.40607422 17.61238281 -3.87464844 18.47476562 -4.35742188 19.36328125 C-5.22210228 20.95329788 -6.09192156 22.54053834 -6.96850586 24.12402344 C-7.67132585 25.40224091 -8.34765103 26.69530207 -9 28 C-5.7 28 -2.4 28 1 28 C1 28.33 1 28.66 1 29 C-2.63 29.33 -6.26 29.66 -10 30 C-11.13408371 25.46366517 -10.86319099 25.04505713 -8.69140625 21.19140625 C-8.19189453 20.27939453 -7.69238281 19.36738281 -7.17773438 18.42773438 C-6.64470703 17.48220703 -6.11167969 16.53667969 -5.5625 15.5625 C-4.51258483 13.69413695 -3.47183805 11.82058497 -2.44140625 9.94140625 C-1.97420166 9.11326416 -1.50699707 8.28512207 -1.02563477 7.43188477 C0.10049805 4.76170885 0.1997286 2.86810268 0 0 Z " fill="#DDDDE0" transform="translate(142,270)"/>
<path d="M0 0 C1.010625 0.350625 2.02125 0.70125 3.0625 1.0625 C5.72647991 1.50246764 8.37456524 1.78443778 11.0625 2.0625 C8.75 4.125 8.75 4.125 6.0625 6.0625 C5.0725 5.7325 4.0825 5.4025 3.0625 5.0625 C3.0625 4.4025 3.0625 3.7425 3.0625 3.0625 C-1.34664783 1.96021304 -5.42132401 1.98595464 -9.9375 2.0625 C-9.6075 5.0325 -9.2775 8.0025 -8.9375 11.0625 C-13.03506098 4.91615854 -13.03506098 4.91615854 -12.6875 1.875 C-10.7064036 -2.91264963 -3.99471563 -1.27490924 0 0 Z " fill="#DADADC" transform="translate(488.9375,209.9375)"/>
<path d="M0 0 C-1.10794922 0.27263672 -1.10794922 0.27263672 -2.23828125 0.55078125 C-8.43066382 2.0851073 -14.5892863 3.69296744 -20.72265625 5.44921875 C-23 6 -23 6 -26 6 C-26 7.98 -26 9.96 -26 12 C-26.66 12 -27.32 12 -28 12 C-28.66 9.69 -29.32 7.38 -30 5 C-6.56394453 -2.14175655 -6.56394453 -2.14175655 0 0 Z " fill="#EAEAEA" transform="translate(305,317)"/>
<path d="M0 0 C1.134375 0.020625 2.26875 0.04125 3.4375 0.0625 C2.81875 0.330625 2.2 0.59875 1.5625 0.875 C-0.8620233 2.01806848 -0.8620233 2.01806848 -2.5625 5.0625 C-1.758125 5.805 -0.95375 6.5475 -0.125 7.3125 C3.53069319 11.23568293 3.56887898 14.07769728 3.5 19.3125 C3.49097656 20.20453125 3.48195313 21.0965625 3.47265625 22.015625 C3.46105469 22.69109375 3.44945312 23.3665625 3.4375 24.0625 C3.1075 24.0625 2.7775 24.0625 2.4375 24.0625 C2.27894531 23.18207031 2.12039062 22.30164063 1.95703125 21.39453125 C0.81944333 13.97812969 0.81944333 13.97812969 -3.3125 8.0625 C-4.055 7.4025 -4.7975 6.7425 -5.5625 6.0625 C-5.34366356 1.24809841 -4.87990027 0.08561229 0 0 Z " fill="#DFDFE1" transform="translate(38.5625,200.9375)"/>
<path d="M0 0 C2.24973447 -0.054138 4.49984383 -0.09285491 6.75 -0.125 C8.00296875 -0.14820313 9.2559375 -0.17140625 10.546875 -0.1953125 C13.72820492 -0.01537302 15.36521896 0.31001418 18 2 C18.28571429 9.42857143 18.28571429 9.42857143 16 13 C14.95994298 9.61981469 14.91995518 6.5219721 15 3 C9.97560615 1.32520205 5.09914442 1.76384378 0 3 C0 2.01 0 1.02 0 0 Z " fill="#E1E3E4" transform="translate(52,200)"/>
<path d="M0 0 C0.33 0 0.66 0 1 0 C1.99050737 7.26372069 -1.14951661 12.96174196 -5 19 C-7.02738715 21.15658339 -8.20178087 21.84421384 -11 23 C-13.375 22.75 -13.375 22.75 -15 22 C-13.948125 21.505 -12.89625 21.01 -11.8125 20.5 C-4.77364827 16.43310789 -2.52490574 9.40628404 -0.48046875 1.90625 C-0.32191406 1.2771875 -0.16335937 0.648125 0 0 Z " fill="#DEDFE1" transform="translate(89,231)"/>
<path d="M0 0 C2.97 0.495 2.97 0.495 6 1 C5.401875 1.20625 4.80375 1.4125 4.1875 1.625 C-0.42452946 4.52398994 -1.42308113 10.14016428 -2.58789062 15.16601562 C-2.90859623 16.6164496 -3.22889835 18.06697283 -3.54882812 19.51757812 C-3.97616059 21.35905495 -4.48204937 23.1819304 -5 25 C-5.66 25.33 -6.32 25.66 -7 26 C-5.66873221 17.25917597 -3.98313832 7.96627663 0 0 Z " fill="#E8E9EA" transform="translate(426,195)"/>
<path d="M0 0 C0.33 0 0.66 0 1 0 C0.67 3.63 0.34 7.26 0 11 C2.5390625 10.93489583 5.078125 10.86979167 7.6171875 10.8046875 C10 11 10 11 12 13 C7.71 13 3.42 13 -1 13 C-3 9 -3 9 -2.5390625 6.640625 C-2.23742187 5.85171875 -1.93578125 5.0628125 -1.625 4.25 C-1.32851562 3.45078125 -1.03203125 2.6515625 -0.7265625 1.828125 C-0.48679688 1.22484375 -0.24703125 0.6215625 0 0 Z " fill="#DEDEDE" transform="translate(171,397)"/>
<path d="M0 0 C5.1504548 1.98643407 8.00849897 6.45832412 11.46484375 10.56640625 C14.12980079 13.12460076 15.35875944 13.84597121 19 14 C19.66 13.67 20.32 13.34 21 13 C20.67 14.32 20.34 15.64 20 17 C15.72935326 16.7020479 13.38389823 15.95420724 10.5 12.73828125 C10.005 12.16464844 9.51 11.59101563 9 11 C8.236875 10.16855469 7.47375 9.33710938 6.6875 8.48046875 C0 1.17646484 0 1.17646484 0 0 Z " fill="#E5E6E7" transform="translate(541,226)"/>
<path d="M0 0 C0.66 0.33 1.32 0.66 2 1 C0.39713414 6.98142625 -1.11819976 10.91291142 -6 15 C-6.73283203 15.69802734 -6.73283203 15.69802734 -7.48046875 16.41015625 C-9.94976743 18.68902058 -11.48794477 19.94434182 -14.875 20.3125 C-15.57625 20.209375 -16.2775 20.10625 -17 20 C-15.1000854 18.73339027 -13.16462771 17.51734045 -11.1875 16.375 C-5.50883112 12.14383495 -1.73209602 6.92838408 0 0 Z " fill="#EBEBEB" transform="translate(543,398)"/>
<path d="M0 0 C1.98 0 3.96 0 6 0 C6 0.33 6 0.66 6 1 C4.35 1 2.7 1 1 1 C0.67 8.59 0.34 16.18 0 24 C-0.33 24 -0.66 24 -1 24 C-1.99862699 16.63512596 -2.10331031 9.42686315 -2 2 C-1.34 2 -0.68 2 0 2 C0 1.34 0 0.68 0 0 Z " fill="#EDECEB" transform="translate(501,369)"/>
<path d="M0 0 C0.66 0.33 1.32 0.66 2 1 C1.2884375 1.5878125 1.2884375 1.5878125 0.5625 2.1875 C-1.35179633 4.40808374 -1.61266988 6.13375709 -2 9 C-0.824375 9.433125 -0.824375 9.433125 0.375 9.875 C3 11 3 11 5 13 C5.1953125 16.0390625 5.1953125 16.0390625 5.125 19.625 C5.10695313 20.81351562 5.08890625 22.00203125 5.0703125 23.2265625 C5.04710937 24.14179688 5.02390625 25.05703125 5 26 C4.67 26 4.34 26 4 26 C3.91363281 25.18015625 3.82726562 24.3603125 3.73828125 23.515625 C3.10834213 16.83544151 3.10834213 16.83544151 -0.5625 11.5625 C-1.366875 11.046875 -2.17125 10.53125 -3 10 C-4.0625 7.5625 -4.0625 7.5625 -4 5 C-2.0625 2.1875 -2.0625 2.1875 0 0 Z " fill="#D7D8DB" transform="translate(476,330)"/>
<path d="M0 0 C6.86625338 0.59753787 12.021534 2.72320431 17.96875 6.15234375 C16.97875 6.64734375 16.97875 6.64734375 15.96875 7.15234375 C14.29707297 6.49834213 12.6316353 5.82838716 10.96875 5.15234375 C8.36365836 4.563836 5.77859157 4.01918963 3.15625 3.52734375 C2.46337891 3.39328125 1.77050781 3.25921875 1.05664062 3.12109375 C-0.63847609 2.79376087 -2.33475146 2.47243781 -4.03125 2.15234375 C-2.03125 0.15234375 -2.03125 0.15234375 0 0 Z " fill="#DADADD" transform="translate(429.03125,308.84765625)"/>
<path d="M0 0 C0.66 0 1.32 0 2 0 C1.39733215 4.50727647 -0.36599794 7.8587963 -2.5625 11.8125 C-3.0565332 12.7087207 -3.0565332 12.7087207 -3.56054688 13.62304688 C-4.36773267 15.08533998 -5.18304917 16.5431399 -6 18 C-6.66 18 -7.32 18 -8 18 C-8 18.99 -8 19.98 -8 21 C-8.66 21 -9.32 21 -10 21 C-9.35232245 17.56414957 -7.98727725 15.12915684 -6.125 12.1875 C-3.67504629 8.21221453 -1.69964438 4.34353565 0 0 Z " fill="#DADCDD" transform="translate(95,235)"/>
<path d="M0 0 C0.33 0 0.66 0 1 0 C1 7.26 1 14.52 1 22 C-3.49202386 22.89840477 -5.68380697 22.90338924 -10 22 C-10 21.67 -10 21.34 -10 21 C-7.03 21 -4.06 21 -1 21 C-0.67 14.07 -0.34 7.14 0 0 Z " fill="#D3D3D5" transform="translate(193,388)"/>
<path d="M0 0 C0.66 0.33 1.32 0.66 2 1 C2.02685095 3.47923801 2.04676547 5.9581884 2.0625 8.4375 C2.07087891 9.14455078 2.07925781 9.85160156 2.08789062 10.58007812 C2.09653588 12.38693559 2.05220011 14.19387603 2 16 C1.67 16.33 1.34 16.66 1 17 C0.76712992 18.68183948 0.58735834 20.3712416 0.4375 22.0625 C0.35371094 22.98160156 0.26992187 23.90070313 0.18359375 24.84765625 C0.12300781 25.55792969 0.06242188 26.26820313 0 27 C-0.33 27 -0.66 27 -1 27 C-1.13534286 17.94706663 -0.75741925 9.02140429 0 0 Z " fill="#BBBCBD" transform="translate(168,345)"/>
<path d="M0 0 C-0.99418967 5.88664939 -2.17432808 10.33746235 -6 15 C-6.66 15 -7.32 15 -8 15 C-6.87548273 12.0280615 -5.77706209 9.66559313 -4 7 C-3.61500109 5.34450469 -3.27206865 3.6777567 -3 2 C-3.99 2 -4.98 2 -6 2 C-6 1.34 -6 0.68 -6 0 C-3.50907189 -1.24546405 -2.58919267 -0.7767578 0 0 Z " fill="#D5D8DB" transform="translate(464,267)"/>
<path d="M0 0 C-1.35241026 4.05723077 -3.60926242 5.49085419 -7 8 C-7.99 8 -8.98 8 -10 8 C-10 9.32 -10 10.64 -10 12 C-9.01 12.33 -8.02 12.66 -7 13 C-8.9375 13.5625 -8.9375 13.5625 -11 14 C-12 13 -12 13 -12.375 10.6875 C-12 8 -12 8 -9.8125 5.9375 C-8.884375 5.298125 -7.95625 4.65875 -7 4 C-5.6696875 2.88625 -5.6696875 2.88625 -4.3125 1.75 C-2 0 -2 0 0 0 Z " fill="#E0E1E3" transform="translate(512,282)"/>
<path d="M0 0 C0.33 0 0.66 0 1 0 C1.01981934 0.89307861 1.03963867 1.78615723 1.06005859 2.70629883 C1.13818698 6.02200708 1.22487971 9.33726162 1.31738281 12.65258789 C1.35564866 14.08707068 1.39050581 15.52164865 1.421875 16.95629883 C1.46757862 19.01938878 1.52556193 21.08182495 1.5859375 23.14453125 C1.6173584 24.38565674 1.6487793 25.62678223 1.68115234 26.90551758 C1.77399209 30.16636101 1.77399209 30.16636101 4 33 C2.68 32.67 1.36 32.34 0 32 C0 21.44 0 10.88 0 0 Z " fill="#E9E9E9" transform="translate(65,261)"/>
<path d="M0 0 C0.99 0.495 0.99 0.495 2 1 C2.625 3.5625 2.625 3.5625 3 6 C6.3 6 9.6 6 13 6 C11.4375 8.0625 11.4375 8.0625 9 10 C5.375 10 5.375 10 2 9 C-0.30634419 6.19227664 -0.19642641 3.53567531 0 0 Z " fill="#DCDDDD" transform="translate(499,355)"/>
<path d="M0 0 C2.5 1.125 2.5 1.125 5 3 C5.375 6.125 5.375 6.125 5 9 C4 10 4 10 1.49609375 10.09765625 C-0.01791016 10.08025391 -0.01791016 10.08025391 -1.5625 10.0625 C-2.57441406 10.05347656 -3.58632812 10.04445313 -4.62890625 10.03515625 C-5.41136719 10.02355469 -6.19382812 10.01195312 -7 10 C-7 9.67 -7 9.34 -7 9 C-4.36 8.67 -1.72 8.34 1 8 C1.66 6.35 2.32 4.7 3 3 C2.01 2.67 1.02 2.34 0 2 C0 1.34 0 0.68 0 0 Z " fill="#E0E0E0" transform="translate(71,293)"/>
<path d="M0 0 C-0.75 2.4375 -0.75 2.4375 -2 5 C-4.125 5.8125 -4.125 5.8125 -6 6 C-5.67 4.35 -5.34 2.7 -5 1 C-6.32 0.34 -7.64 -0.32 -9 -1 C-5.79937313 -2.60031344 -3.27728194 -1.03173691 0 0 Z " fill="#D6D9DB" transform="translate(219,334)"/>
<path d="M0 0 C2.31 0 4.62 0 7 0 C6.67 0.66 6.34 1.32 6 2 C5.01 2 4.02 2 3 2 C3 2.66 3 3.32 3 4 C3.66 4 4.32 4 5 4 C5.33 5.65 5.66 7.3 6 9 C5.34 9 4.68 9 4 9 C0 3.70588235 0 3.70588235 0 0 Z " fill="#D9DCDC" transform="translate(131,193)"/>
<path d="M0 0 C5.75 0.875 5.75 0.875 8 2 C8 2.66 8 3.32 8 4 C6.9275 3.7525 5.855 3.505 4.75 3.25 C0.97254504 2.57571378 0.97254504 2.57571378 -1.4375 4.9375 C-1.953125 5.618125 -2.46875 6.29875 -3 7 C-3.33 6.34 -3.66 5.68 -4 5 C-2.68 3.35 -1.36 1.7 0 0 Z " fill="#E4E5E6" transform="translate(100,229)"/>
<path d="M0 0 C1.48484412 0.39595843 2.9628831 0.81750706 4.4375 1.25 C5.26121094 1.48203125 6.08492187 1.7140625 6.93359375 1.953125 C9 3 9 3 9.78515625 5.109375 C9.85605469 5.73328125 9.92695312 6.3571875 10 7 C8.68 7.33 7.36 7.66 6 8 C6.33 6.68 6.66 5.36 7 4 C6.030625 3.71125 5.06125 3.4225 4.0625 3.125 C1 2 1 2 0 0 Z " fill="#CCCFCE" transform="translate(533,286)"/>
<path d="M0 0 C4.3694206 0.25702474 6.51822991 0.60023333 9.9375 3.4375 C12 6 12 6 12 8 C11.34 8 10.68 8 10 8 C9.4225 7.21625 8.845 6.4325 8.25 5.625 C5.65878871 2.60192016 3.80315606 1.95078902 0 1 C0 0.67 0 0.34 0 0 Z " fill="#E3E4E7" transform="translate(102,346)"/>
<path d="M0 0 C0 2.97 0 5.94 0 9 C-2 7 -2 7 -2.125 4.375 C-2.08375 3.59125 -2.0425 2.8075 -2 2 C-3.65 2 -5.3 2 -7 2 C-4.35261084 0.5393715 -3.10551666 0 0 0 Z " fill="#DCDADD" transform="translate(507,218)"/>
<path d="M0 0 C0.33 0 0.66 0 1 0 C1.06058594 0.97582031 1.12117187 1.95164062 1.18359375 2.95703125 C1.26738281 4.22933594 1.35117188 5.50164062 1.4375 6.8125 C1.51871094 8.07707031 1.59992188 9.34164063 1.68359375 10.64453125 C1.87184547 13.99181893 1.87184547 13.99181893 3 17 C2.01 16.67 1.02 16.34 0 16 C0 10.72 0 5.44 0 0 Z " fill="#E1E1E3" transform="translate(210,392)"/>
<path d="M0 0 C0.99 0.33 1.98 0.66 3 1 C2.67 1.99 2.34 2.98 2 4 C2.27769908 6.3406065 2.60539977 8.67624308 3 11 C-1.13333333 4.8 -1.13333333 4.8 -0.625 1.75 C-0.41875 1.1725 -0.2125 0.595 0 0 Z " fill="#CCCCCE" transform="translate(477,210)"/>
<path d="M0 0 C0.99 0.33 1.98 0.66 3 1 C-1.75 6.75 -1.75 6.75 -4 9 C-4.33 8.34 -4.66 7.68 -5 7 C-3.35 4.69 -1.7 2.38 0 0 Z " fill="#E7E8E8" transform="translate(212,340)"/>
<path d="M0 0 C0.33 0 0.66 0 1 0 C1.33 2.64 1.66 5.28 2 8 C0.02 8 -1.96 8 -4 8 C-3.67 7.34 -3.34 6.68 -3 6 C-2.01 6 -1.02 6 0 6 C0 4.02 0 2.04 0 0 Z " fill="#ECEBEA" transform="translate(219,420)"/>
</svg>
